<?xml version="1.0" encoding="UTF-8" standalone="no"?>
<svg
   xmlns:dc="http://purl.org/dc/elements/1.1/"
   xmlns:cc="http://creativecommons.org/ns#"
   xmlns:rdf="http://www.w3.org/1999/02/22-rdf-syntax-ns#"
   xmlns:svg="http://www.w3.org/2000/svg"
   xmlns="http://www.w3.org/2000/svg"
   xmlns:xlink="http://www.w3.org/1999/xlink"
   xmlns:sodipodi="http://sodipodi.sourceforge.net/DTD/sodipodi-0.dtd"
   xmlns:inkscape="http://www.inkscape.org/namespaces/inkscape"
   inkscape:version="1.0 (4035a4fb49, 2020-05-01)"
   sodipodi:docname="Ebenezer - Logo (White No Letters).svg"
   viewBox="0 0 542 429"
   height="429"
   width="542"
   id="svg2"
   version="1.1">
  <sodipodi:namedview
     inkscape:current-layer="svg2"
     inkscape:window-maximized="1"
     inkscape:window-y="-9"
     inkscape:window-x="-9"
     inkscape:cy="287.15869"
     inkscape:cx="670.44963"
     inkscape:zoom="0.94226536"
     showborder="false"
     inkscape:pagecheckerboard="false"
     showgrid="false"
     id="namedview60"
     inkscape:window-height="1013"
     inkscape:window-width="1920"
     inkscape:pageshadow="2"
     inkscape:pageopacity="1"
     guidetolerance="10"
     gridtolerance="10"
     objecttolerance="10"
     borderopacity="1"
     bordercolor="#666666"
     pagecolor="#000000" />
  <metadata
     id="metadata8">
    <rdf:RDF>
      <cc:Work
         rdf:about="">
        <dc:format>image/svg+xml</dc:format>
        <dc:type
           rdf:resource="http://purl.org/dc/dcmitype/StillImage" />
        <dc:title></dc:title>
      </cc:Work>
    </rdf:RDF>
  </metadata>
  <defs
     id="defs6">
    <linearGradient
       id="linearGradient4787">
      <stop
         id="stop4783"
         offset="0"
         style="stop-color:#2e8aa1;stop-opacity:1;" />
      <stop
         id="stop4785"
         offset="1"
         style="stop-color:#2e8aa1;stop-opacity:0;" />
    </linearGradient>
    <linearGradient
       gradientTransform="translate(-271.85708,81.621394)"
       gradientUnits="userSpaceOnUse"
       y2="214.46678"
       x2="541.56366"
       y1="214.46678"
       x1="0.51204771"
       id="linearGradient4825"
       xlink:href="#linearGradient4787" />
  </defs>
  <g
     id="layer1" />
  <g
     id="layer2">
    <g
       transform="translate(-538.53229,20.210066)"
       id="g2819">
      <path
         id="path4854-1"
         d="m 703.61243,347.07496 c 26.8989,-18.13797 38.78842,-25.33231 60.84334,-30.06501 80.75974,-5.49558 200.55225,-8.96826 232.37726,-68.60715 12.93307,-28.81097 -7.336,-28.29843 -21.8136,-9.54343 -3.14298,-31.2987 -18.16854,-15.41227 -24.54021,9.54343 l -9.08898,12.72458 c 12.91504,9.29987 15.00908,10.36039 13.17902,24.0858 -2.12922,-19.17826 -11.29142,-22.44056 -24.0858,-23.63135 l 9.54343,-8.18009 8.18008,-30.90254 c -17.70383,-11.36962 -24.03367,12.1485 -29.53919,24.9947 l -12.0429,13.17902 c -15.16283,1.45759 -30.48451,3.24513 -42.94545,-0.90889 -19.84969,-11.1665 -33.17801,-21.51536 -52.94332,-21.13189 -14.53832,-1.59869 -25.37885,-0.82228 -42.94545,3.6356 -32.93274,20.66808 -72.26833,38.72515 -102.30323,50.82078 10.07267,22.75389 22.03675,38.45124 38.125,53.98644 z"
         style="fill:#ffffff;fill-opacity:1;stroke:none;stroke-width:1;stroke-linecap:butt;stroke-linejoin:miter;stroke-opacity:1" />
      <path
         id="path4856-6"
         d="m 786.42308,168.41975 v 0 c 0.9089,-3.40837 0.47755,-1.23965 0.9089,-3.40837 14.1393,-39.99609 -18.03264,-48.23569 -0.62642,4.43947 -9.61473,-20.96988 -21.94289,-51.85588 -2.97688,-63.70275 21.12762,-8.478523 22.59768,15.13321 47.25799,24.89724 15.07302,0.99569 19.51672,-8.3427 29.8558,-14.94169 30.4003,-8.57847 43.34219,21.55006 33.6891,37.14511 l -18.34336,19.31212 c 2.66554,-7.37626 23.44177,-31.57839 5.66919,-35.55257 -10.18979,4.7175 -11.57556,15.95702 -13.63348,25.9036 3.27485,2.90116 6.51581,5.79166 7.96429,9.64897 2.797,32.05413 19.82341,59.68361 29.43068,81.88537 0.22214,0.51336 0.44032,1.02382 0.65426,1.53136 0.84647,2.00811 1.62666,3.97059 2.32398,5.88669 -22.16741,-18.9308 -30.32169,-40.06516 -44.0915,-66.41556 1.09232,22.23598 4.50902,44.19454 7.59254,66.21175 -10.24216,-24.51214 -18.37945,-45.7098 -22.96111,-71.48163 l 26.59904,-17.50255 c -8.9363,2.57077 -17.63674,5.99905 -26.65335,8.28502 1.31803,-5.87404 1.52151,-10.56941 11.35873,-16.23162 l -2.66989,-34.53814 c -18.3278,8.54924 -44.59775,1.67826 -51.45829,-4.03963 4.43159,19.76879 3.92519,34.31103 2.39394,53.89928"
         style="fill:#ffffff;fill-opacity:1;stroke:none;stroke-width:1;stroke-linecap:butt;stroke-linejoin:miter;stroke-opacity:1" />
      <path
         id="path4864-5"
         d="m 745.78886,255.16913 c -19.3983,-43.7537 -8.33923,-83.85038 20.26197,-116.39411 l -0.0899,-0.8015 -1.59481,-14.22289 c -39.13,29.31761 -54.64766,93.31249 -30.20472,136.46785"
         style="fill:#ffffff;fill-opacity:1;stroke:none;stroke-width:1;stroke-linecap:butt;stroke-linejoin:miter;stroke-opacity:1" />
      <path
         id="path4866-7"
         d="m 734.16143,260.21848 v 0"
         style="fill:#ffffff;fill-opacity:1;stroke:none;stroke-width:1;stroke-linecap:butt;stroke-linejoin:miter;stroke-opacity:1" />
      <path
         id="path4872-5"
         d="m 789.94506,99.173067 c 16.79612,-6.03247 9.21931,-26.698931 -4.37407,-29.084741 -22.17882,5.77866 -11.15141,30.438184 4.37407,29.084741 z"
         style="fill:#ffffff;fill-opacity:1;stroke:none;stroke-width:1;stroke-linecap:butt;stroke-linejoin:miter;stroke-opacity:1" />
      <path
         id="path4872-1-7"
         d="m 892.09797,91.471927 c -8.84392,-15.136371 -29.86058,1.7677 -26.51135,13.480883 8.51486,13.08367 28.61251,-3.553 26.51135,-13.480883 z"
         style="fill:#ffffff;fill-opacity:1;stroke:none;stroke-width:1;stroke-linecap:butt;stroke-linejoin:miter;stroke-opacity:1" />
      <path
         id="path4889-6"
         d="m 844.70618,164.38652 c 1.06759,17.33651 -25.05507,15.22833 -28.06223,8.23689 -0.99307,-11.61179 25.4364,-16.29873 28.06223,-8.23689 z"
         style="fill:#ffffff;fill-opacity:1;stroke:none;stroke-width:1;stroke-linecap:butt;stroke-linejoin:miter;stroke-opacity:1" />
      <path
         id="path4763-8"
         d="m 903.63759,137.51368 c 46.1957,51.65856 25.18746,64.13779 35.50852,69.89234 16.53263,1.18765 9.53334,-9.99496 7.06957,-25.22551 -6.29728,-28.6324 -33.63952,-61.48651 -59.44865,-71.33838 6.03121,6.44574 13.53922,12.9945 16.22788,25.70752 z"
         style="fill:#ffffff;fill-opacity:1;stroke:none;stroke-width:1;stroke-linecap:butt;stroke-linejoin:miter;stroke-opacity:1" />
      <path
         id="path4767-3"
         d="m 807.39505,187.80403 -20.97197,-19.38428 c 7.45234,3.77114 16.25017,8.54471 22.28416,11.23147"
         style="fill:#ffffff;fill-opacity:1;stroke:none;stroke-width:1;stroke-linecap:butt;stroke-linejoin:miter;stroke-opacity:1" />
      <path
         id="path4773-5"
         d="m 691.60342,280.55826 c -0.0811,-0.32291 -0.34553,-0.83905 -0.58773,-1.14694 -0.24219,-0.30791 -0.44036,-0.78788 -0.44036,-1.06661 0,-0.27873 -0.2045,-0.76676 -0.45445,-1.08452 -0.24994,-0.31775 -0.45445,-0.77788 -0.45445,-1.02251 0,-0.24462 -0.19117,-0.68862 -0.42483,-0.98667 -0.23367,-0.29804 -0.50032,-0.89978 -0.59258,-1.33718 -0.0922,-0.43741 -0.3612,-1.11411 -0.59767,-1.50378 -0.23647,-0.38967 -0.42994,-0.9127 -0.42994,-1.16229 0,-0.24958 -0.18969,-0.69764 -0.42153,-0.99569 -0.23184,-0.29804 -0.49605,-0.9509 -0.58714,-1.4508 -0.0911,-0.49989 -0.36152,-1.22772 -0.60098,-1.61739 -0.23945,-0.38967 -0.43537,-1.01495 -0.43537,-1.38951 0,-0.37456 -0.18908,-0.92487 -0.42018,-1.22291 -0.23109,-0.29805 -0.48908,-0.98367 -0.5733,-1.5236 -0.0842,-0.53994 -0.29898,-1.20457 -0.47724,-1.47696 -0.17826,-0.27239 -0.39343,-0.95539 -0.47815,-1.51777 -0.0847,-0.56238 -0.3324,-1.32927 -0.55039,-1.70419 -0.218,-0.37492 -0.45731,-1.23142 -0.53182,-1.90334 -0.0745,-0.67192 -0.2809,-1.44363 -0.45866,-1.71493 -0.17775,-0.27129 -0.43122,-1.18714 -0.56325,-2.03522 -0.13204,-0.84807 -0.35885,-1.68509 -0.50404,-1.86002 -0.14518,-0.17494 -0.35157,-1.09919 -0.45864,-2.05389 -0.10706,-0.9547 -0.33558,-1.95337 -0.50782,-2.21927 -0.17223,-0.2659 -0.38026,-1.29082 -0.46227,-2.27762 -0.082,-0.98678 -0.30818,-2.11155 -0.5026,-2.49947 -0.19442,-0.38791 -0.45043,-1.80329 -0.56892,-3.14528 -0.11849,-1.34198 -0.3601,-2.82462 -0.53691,-3.29475 -0.17681,-0.47013 -0.38522,-2.13292 -0.46312,-3.69509 -0.0779,-1.56217 -0.25005,-3.24931 -0.38253,-3.74921 -0.52688,-1.98807 -0.66656,-6.42939 -0.5717,-18.17796 0.0845,-10.46277 0.15348,-12.45421 0.46847,-13.51987 0.20981,-0.7098 0.43075,-2.57501 0.5114,-4.31726 0.0855,-1.84751 0.26403,-3.30973 0.44884,-3.67648 0.16877,-0.33493 0.4059,-1.73768 0.52696,-3.11723 0.12106,-1.37956 0.36688,-2.79268 0.54627,-3.14026 0.17938,-0.34759 0.40088,-1.44998 0.49222,-2.44977 0.0913,-0.99979 0.30958,-2.09944 0.485,-2.44368 0.17541,-0.34423 0.40652,-1.32343 0.51357,-2.176 0.10705,-0.85258 0.34592,-1.84907 0.53081,-2.21443 0.18489,-0.36537 0.4062,-1.21237 0.49181,-1.88223 0.0856,-0.66986 0.29824,-1.43675 0.47251,-1.70419 0.17426,-0.26744 0.41811,-1.11859 0.54188,-1.89146 0.12377,-0.77286 0.37311,-1.64199 0.55408,-1.9314 0.18097,-0.28942 0.3946,-0.96797 0.47473,-1.50791 0.0801,-0.53994 0.29606,-1.21121 0.47986,-1.49172 0.1838,-0.28051 0.40282,-1.01463 0.48672,-1.63138 0.0839,-0.61675 0.28503,-1.22362 0.44696,-1.34859 0.16192,-0.12497 0.39687,-0.68735 0.52209,-1.24973 0.12523,-0.56239 0.43599,-1.42758 0.69059,-1.92265 0.25459,-0.49508 0.46289,-1.08055 0.46289,-1.30105 0,-0.2205 0.20412,-0.7357 0.4536,-1.14489 0.24948,-0.40918 0.45399,-0.98347 0.45445,-1.27619 4.8e-4,-0.29272 0.20535,-0.7922 0.4553,-1.10996 0.24995,-0.31775 0.45764,-0.79401 0.46154,-1.05835 0.004,-0.26434 0.25901,-0.88962 0.5669,-1.38951 0.30789,-0.49989 0.56033,-1.12332 0.56097,-1.38539 6.4e-4,-0.26206 0.19489,-0.69985 0.43167,-0.97286 0.23677,-0.27301 0.49704,-0.85103 0.57836,-1.2845 0.0813,-0.43347 0.24136,-0.78813 0.35566,-0.78813 0.11429,0 0.33273,-0.43457 0.48542,-0.9657 0.15269,-0.53114 0.46354,-1.14863 0.69079,-1.3722 0.22725,-0.22357 0.41318,-0.64229 0.41318,-0.93049 0,-0.2882 0.19871,-0.70382 0.44157,-0.92361 0.24287,-0.21979 0.51191,-0.71986 0.59788,-1.11128 0.086,-0.39143 0.28499,-0.81539 0.44226,-0.94215 0.15727,-0.12676 0.40741,-0.61391 0.55586,-1.08256 0.14846,-0.46865 0.36014,-0.85209 0.4704,-0.85209 0.11027,0 0.32303,-0.40901 0.4728,-0.9089 0.14977,-0.4999 0.35785,-0.9089 0.4624,-0.9089 0.10456,0 0.407,-0.46143 0.6721,-1.02541 0.2651,-0.56397 0.57237,-1.08126 0.68283,-1.14953 0.11047,-0.0683 0.20084,-0.31899 0.20084,-0.55717 0,-0.23817 0.20011,-0.54013 0.44467,-0.67103 0.24494,-0.13108 0.51013,-0.5869 0.5904,-1.01476 0.0802,-0.42723 0.28582,-0.83054 0.45705,-0.89625 0.17122,-0.0657 0.46974,-0.45623 0.66337,-0.86783 0.51308,-1.09071 1.08376,-2.01538 1.53691,-2.49028 0.21871,-0.2292 0.39765,-0.55425 0.39765,-0.72234 0,-0.16809 0.2045,-0.49069 0.45444,-0.71689 0.24995,-0.2262 0.45445,-0.50848 0.45445,-0.62729 0,-0.1188 0.25563,-0.5198 0.56807,-0.89111 0.31243,-0.37131 0.56806,-0.79791 0.56806,-0.94801 0,-0.1501 0.17894,-0.43907 0.39764,-0.64216 0.2187,-0.20309 0.65327,-0.74412 0.9657,-1.20229 0.31244,-0.45816 0.79813,-1.12193 1.07932,-1.47503 0.28119,-0.3531 0.51126,-0.75041 0.51126,-0.8829 0,-0.1325 0.26276,-0.52675 0.58391,-0.8761 0.97803,-1.06394 1.16026,-1.29635 1.44685,-1.84533 0.15173,-0.29065 0.44708,-0.71307 0.65632,-0.93871 0.20925,-0.22565 0.58495,-0.68205 0.8349,-1.01423 0.24994,-0.33218 0.61907,-0.77889 0.82028,-0.99269 0.20122,-0.2138 0.72336,-0.86302 1.16032,-1.44272 1.13171,-1.50139 1.8898,-2.39367 3.5864,-4.22125 0.56238,-0.60579 1.68714,-1.85917 2.49947,-2.78528 2.34133,-2.66926 3.46447,-3.882463 4.29584,-4.640313 0.42561,-0.38798 1.09024,-1.05592 1.47695,-1.48431 1.08921,-1.20658 3.48376,-3.42453 5.44607,-5.04442 0.3591,-0.29644 1.07486,-0.95417 1.59058,-1.46162 0.51571,-0.50745 1.1166,-0.98994 1.3353,-1.07218 0.2187,-0.0822 0.39764,-0.30613 0.39764,-0.49752 0,-0.19138 0.12422,-0.34796 0.27604,-0.34796 0.15182,0 0.48414,-0.20681 0.73848,-0.45957 0.25434,-0.25277 0.87145,-0.76962 1.37134,-1.14855 1.22483,-0.92846 2.82294,-2.25523 3.46847,-2.87956 0.29074,-0.28119 0.61216,-0.51125 0.71427,-0.51125 0.18488,0 0.62014,-0.3206 3.48073,-2.56375 0.28414,-0.22281 0.82337,-0.60478 1.19829,-0.84881 1.32082,-0.85973 1.55407,-1.02118 1.91147,-1.323 0.19842,-0.16757 0.91541,-0.6505 1.5933,-1.07317 0.67788,-0.42266 1.29139,-0.847941 1.36334,-0.945051 0.072,-0.0971 0.48871,-0.35488 0.92611,-0.57282 1.00199,-0.49922 1.53275,-0.83388 2.34469,-1.47836 0.35426,-0.28119 0.77379,-0.51125 0.93229,-0.51125 0.1585,0 0.47325,-0.2045 0.69945,-0.45445 0.2262,-0.24995 0.58741,-0.45445 0.80268,-0.45445 0.21528,0 0.52564,-0.16173 0.68969,-0.35941 0.29284,-0.35284 1.13314,-0.84485 2.71129,-1.5875 0.43741,-0.20584 0.87705,-0.51662 0.97699,-0.69063 0.0999,-0.17401 0.36127,-0.31638 0.58073,-0.31638 0.21946,0 0.74549,-0.25563 1.16897,-0.56806 0.42348,-0.31244 0.93876,-0.56806 1.14505,-0.56806 0.2063,0 0.551,-0.19438 0.766,-0.43195 0.215,-0.23757 0.74747,-0.49884 1.18328,-0.5806 0.43581,-0.0818 0.848,-0.2936 0.91599,-0.47077 0.068,-0.17716 0.46493,-0.38615 0.8821,-0.46441 0.41717,-0.0783 0.9344,-0.33667 1.1494,-0.57424 0.215,-0.23758 0.6169,-0.43195 0.89311,-0.43195 0.27621,0 0.74605,-0.18891 1.0441,-0.4198 0.29804,-0.230892 0.84058,-0.492862 1.20564,-0.582152 0.36505,-0.0893 0.91566,-0.36051 1.22357,-0.60271 0.30791,-0.2422 0.78788,-0.44036 1.06661,-0.44036 0.27872,0 0.75062,-0.19118 1.04867,-0.42484 0.29804,-0.23366 0.89978,-0.50261 1.33718,-0.59767 0.43741,-0.0951 1.03914,-0.36402 1.33719,-0.59768 0.29804,-0.23366 0.82107,-0.42483 1.16228,-0.42483 0.34122,0 0.86425,-0.18886 1.16229,-0.41968 0.29804,-0.23082 0.93802,-0.48208 1.42217,-0.55835 0.48415,-0.0763 1.05433,-0.29619 1.26706,-0.48871 0.21274,-0.19252 0.86837,-0.44 1.45697,-0.54997 0.5886,-0.10996 1.24543,-0.35282 1.45963,-0.53968 0.2142,-0.18687 0.8793,-0.39179 1.47799,-0.45539 0.5987,-0.0636 1.26333,-0.27214 1.47696,-0.46343 0.21364,-0.19129 0.974,-0.4551 1.6897,-0.58624 0.71571,-0.13115 1.53371,-0.3835 1.8178,-0.56078 0.28409,-0.17728 1.00299,-0.38384 1.59756,-0.459024 0.59457,-0.07518 1.31032,-0.283679 1.59057,-0.463328 0.28024,-0.179649 1.12304,-0.399186 1.87288,-0.48786 0.74984,-0.08867 1.72123,-0.338493 2.15863,-0.555153 0.43741,-0.21666 1.42136,-0.448228 2.18656,-0.514595 0.76519,-0.06637 1.63433,-0.273227 1.9314,-0.459688 0.29708,-0.186462 1.35816,-0.407831 2.35795,-0.491932 0.99978,-0.0841 2.12454,-0.306865 2.49947,-0.495033 0.37492,-0.188167 1.70418,-0.428547 2.95391,-0.534177 1.24974,-0.10563 2.63013,-0.341316 3.06754,-0.523747 0.48322,-0.201541 2.02539,-0.390404 3.93023,-0.481318 2.06812,-0.09871 3.49864,-0.282801 4.20366,-0.540968 0.97058,-0.355413 2.41432,-0.390909 15.72469,-0.386614 13.18956,0.0043 14.79098,0.04391 16.0052,0.396324 0.75242,0.21838 2.61183,0.454705 4.20365,0.534268 1.82814,0.09137 3.32162,0.296093 4.15381,0.56938 0.71466,0.234689 1.91866,0.426708 2.67557,0.426708 0.78675,0 1.92172,0.191736 2.64985,0.447656 0.70052,0.246211 2.05279,0.51742 3.00505,0.602686 0.95227,0.08527 1.93927,0.290048 2.19334,0.45507 0.25407,0.165022 1.20591,0.405552 2.11519,0.534511 0.90928,0.128959 1.92842,0.375376 2.26474,0.547592 0.33633,0.172216 1.14449,0.385302 1.79592,0.473525 0.65142,0.08822 1.56774,0.355839 2.03626,0.594703 0.46852,0.238864 1.2016,0.434294 1.62908,0.434294 0.42747,0 1.09605,0.19132 1.48572,0.42516 0.38967,0.23383 1.16862,0.48554 1.731,0.55936 0.56238,0.0738 1.42757,0.34262 1.92265,0.59735 0.49507,0.25474 1.1947,0.46316 1.55473,0.46316 0.36003,0 0.91458,0.2045 1.23233,0.45445 0.31776,0.24994 0.82426,0.45444 1.12557,0.45444 0.30131,0 1.02802,0.25563 1.61493,0.56807 0.5869,0.31243 1.30212,0.56806 1.58936,0.56806 0.28725,0 0.79931,0.19494 1.13793,0.43321 0.33862,0.23826 0.98884,0.4966 1.44493,0.57407 0.45609,0.0775 0.95206,0.28883 1.10215,0.46968 0.15009,0.18084 0.64605,0.39861 1.10215,0.48393 0.45609,0.0853 0.93151,0.28516 1.05648,0.44409 0.12497,0.15892 0.64988,0.39931 1.16646,0.53419 0.51658,0.13488 1.06592,0.39788 1.22075,0.58444 0.15484,0.18656 0.44875,0.3392 0.65315,0.3392 0.20439,0 0.83094,0.24102 1.39234,0.5356 0.56138,0.294582 1.30188,0.603292 1.64556,0.686012 0.34368,0.0827 0.62487,0.24277 0.62487,0.35567 0,0.1129 0.38344,0.32839 0.85209,0.47885 0.46865,0.15047 1.00547,0.40606 1.19293,0.56798 0.18746,0.16192 0.6145,0.3627 0.94898,0.44616 0.33447,0.0835 0.7849,0.34706 1.00092,0.58576 0.21602,0.23871 0.56763,0.43402 0.78136,0.43402 0.21373,0 0.63246,0.19043 0.93048,0.42319 0.29805,0.23275 0.78968,0.50089 1.0925,0.59586 0.30282,0.095 0.75668,0.36466 1.00856,0.59932 0.25188,0.23466 0.62732,0.42665 0.83434,0.42665 0.20701,0 0.5562,0.1987 0.776,0.44157 0.21979,0.24286 0.69576,0.50661 1.05773,0.58611 0.36197,0.0795 0.65811,0.24231 0.65811,0.36179 0,0.11949 0.43457,0.41683 0.9657,0.66076 1.1182,0.51355 1.62241,0.81998 2.51511,1.52856 0.35426,0.28119 0.81617,0.51125 1.02646,0.51125 0.2103,0 0.51008,0.2045 0.66616,0.45445 0.1561,0.24995 0.42379,0.45445 0.59489,0.45445 0.1711,0 0.45143,0.16922 0.62296,0.37603 0.17151,0.20682 0.64416,0.51495 1.05032,0.684731 0.40617,0.16978 0.73848,0.39716 0.73848,0.50529 0,0.10814 0.30676,0.32367 0.68168,0.47897 0.37492,0.1553 0.68167,0.36559 0.68167,0.46731 0,0.10172 0.35788,0.31436 0.79529,0.47253 0.43741,0.15817 0.79592,0.39485 0.79672,0.52596 0.002,0.23001 0.67597,0.71862 2.123,1.5377 0.37935,0.21473 0.77738,0.54705 0.88449,0.73848 0.10714,0.19143 0.3395,0.34806 0.51635,0.34806 0.17685,0 0.431,0.2045 0.56477,0.45445 0.13376,0.24995 0.37517,0.45445 0.53645,0.45445 0.16126,0 0.53339,0.25563 0.82689,0.56806 0.29351,0.31244 0.65077,0.56806 0.79393,0.56806 0.14313,0 0.47162,0.23007 0.72998,0.51126 0.25835,0.28119 0.73432,0.71576 1.05771,0.9657 0.32338,0.24995 0.97399,0.79466 1.44583,1.21049 0.47183,0.41583 1.11351,0.92531 1.42594,1.13217 0.31244,0.20687 0.70167,0.55685 0.86498,0.77772 0.16331,0.22088 0.44091,0.40159 0.61687,0.40159 0.17598,0 0.4257,0.19758 0.55495,0.43907 0.12922,0.24148 0.43959,0.504 0.68965,0.58337 0.25008,0.0794 0.4547,0.2908 0.4547,0.46984 0,0.17903 0.0909,0.32552 0.20207,0.32552 0.25026,0 5.71672,5.23276 8.64705,8.27739 1.1942,1.240773 2.86146,2.967043 3.70503,3.836153 0.84358,0.86912 1.53377,1.62974 1.53377,1.69027 0,0.0605 0.40901,0.50699 0.9089,0.99213 0.49989,0.48513 0.9089,0.94535 0.9089,1.02272 0,0.15586 1.09183,1.52434 1.81077,2.26961 0.25381,0.2631 0.46147,0.54016 0.46147,0.61568 0,0.0755 0.40901,0.5546 0.9089,1.06459 0.4999,0.50999 0.9089,0.98505 0.9089,1.05569 0,0.0706 0.23006,0.41734 0.51126,0.77045 0.28119,0.3531 0.76688,1.00935 1.07931,1.45833 0.31244,0.44898 0.77257,1.06172 1.02251,1.36164 0.24995,0.29993 0.71008,0.91883 1.02251,1.37534 0.31244,0.45651 0.77257,1.06698 1.02251,1.35661 0.24995,0.28962 0.71008,0.95821 1.02251,1.48576 0.31244,0.52754 0.73692,1.1418 0.94328,1.36502 0.20637,0.22322 0.44032,0.611 0.51989,0.86174 0.0796,0.25074 0.29419,0.51325 0.4769,0.58336 0.18269,0.0701 0.33218,0.27621 0.33218,0.45801 0,0.18179 0.24163,0.61957 0.53698,0.97283 0.29532,0.35327 0.60896,0.87237 0.69699,1.15356 0.088,0.28119 0.25619,0.51126 0.37376,0.51126 0.11756,0 0.37424,0.40111 0.5704,0.89136 0.19616,0.49025 0.50207,0.94717 0.67983,1.01538 0.17776,0.0682 0.32318,0.31588 0.32318,0.55038 0,0.2345 0.20451,0.61143 0.4544,0.83763 0.25,0.2262 0.4545,0.5488 0.4545,0.71689 0,0.16809 0.1927,0.49829 0.4281,0.73377 0.2355,0.23548 0.5526,0.80502 0.7046,1.26564 0.152,0.46063 0.4195,0.89241 0.5944,0.95951 0.1748,0.0671 0.3179,0.30774 0.3179,0.53472 0,0.22699 0.2556,0.71651 0.5681,1.08781 0.3124,0.37131 0.568,0.8831 0.568,1.13733 0,0.25422 0.1499,0.61211 0.3331,0.7953 0.1832,0.18319 0.5011,0.75288 0.7064,1.26597 0.2053,0.51308 0.4482,0.93288 0.5398,0.93288 0.092,0 0.2855,0.39688 0.4308,0.88194 0.1454,0.48507 0.4172,1.00885 0.6041,1.16395 0.1869,0.1551 0.3398,0.52511 0.3398,0.82224 0,0.29713 0.1897,0.72994 0.4215,0.9618 0.2319,0.23186 0.4939,0.70948 0.5822,1.06139 0.088,0.3519 0.3587,0.89174 0.6009,1.19965 0.2422,0.30791 0.4404,0.78788 0.4404,1.06661 0,0.27872 0.1897,0.75063 0.4215,1.04867 0.2318,0.29804 0.4902,0.91506 0.5741,1.37116 0.084,0.45609 0.2966,0.94885 0.4728,1.09502 0.1761,0.14616 0.3889,0.591 0.4729,0.98853 0.084,0.39753 0.3337,1.02953 0.555,1.40445 0.2213,0.37493 0.4686,1.05484 0.5496,1.51094 0.081,0.45609 0.2852,0.94371 0.4537,1.08361 0.1686,0.13988 0.3749,0.68226 0.4585,1.20526 0.084,0.52301 0.3388,1.2624 0.5671,1.64309 0.2282,0.38069 0.4749,1.08829 0.5482,1.57244 0.073,0.48415 0.2786,1.04653 0.4561,1.24974 0.1775,0.2032 0.3955,0.88071 0.4843,1.50558 0.089,0.62487 0.3054,1.29697 0.4811,1.49357 0.1757,0.19659 0.3843,0.86122 0.4636,1.47696 0.079,0.61573 0.3222,1.42627 0.54,1.80119 0.2178,0.37492 0.457,1.23142 0.5315,1.90334 0.074,0.67192 0.2825,1.44604 0.4622,1.72028 0.1796,0.27424 0.3997,1.10487 0.489,1.84586 0.089,0.74099 0.3411,1.75626 0.5595,2.25615 0.2185,0.4999 0.4577,1.59644 0.5317,2.43677 0.074,0.84033 0.2808,1.76059 0.4597,2.04502 0.1789,0.28444 0.3965,1.38318 0.4835,2.44165 0.087,1.05848 0.31,2.2178 0.4954,2.57627 0.1933,0.37385 0.4244,1.80272 0.5419,3.35101 0.1127,1.48459 0.3614,3.07395 0.5528,3.53191 0.2565,0.61393 0.3626,1.84365 0.4038,4.68134 0.049,3.34783 0.01,3.87549 -0.312,4.05474 -0.2023,0.11333 -0.4959,0.51524 -0.6524,0.89312 -0.1565,0.37788 -0.3666,0.68706 -0.4668,0.68706 -0.1002,0 -0.5166,0.28119 -0.9252,0.62487 -0.7045,0.5925 -0.8634,0.62487 -3.0667,0.62487 -2.0972,0 -2.3769,-0.0499 -2.8679,-0.51126 -0.2993,-0.28119 -0.6654,-0.51126 -0.8136,-0.51126 -0.1481,0 -0.2693,-0.10225 -0.2693,-0.22722 0,-0.12497 -0.1938,-0.42098 -0.4306,-0.6578 -0.6833,-0.68331 -1.5655,-4.73097 -1.7054,-7.82498 -0.078,-1.73001 -0.2449,-2.9356 -0.4673,-3.38149 -0.1926,-0.38613 -0.4086,-1.66065 -0.4878,-2.87846 -0.078,-1.20202 -0.2945,-2.49225 -0.4808,-2.86717 -0.1862,-0.37493 -0.4226,-1.46841 -0.5253,-2.42998 -0.1027,-0.96156 -0.3402,-2.08632 -0.5278,-2.49947 -0.1877,-0.41314 -0.4102,-1.31355 -0.4945,-2.0009 -0.084,-0.68736 -0.2983,-1.56188 -0.4755,-1.94339 -0.1771,-0.3815 -0.419,-1.28919 -0.5375,-2.01709 -0.1185,-0.72789 -0.3564,-1.54051 -0.5286,-1.80582 -0.1723,-0.26531 -0.3869,-1.04428 -0.4769,-1.73104 -0.09,-0.68676 -0.3146,-1.4154 -0.499,-1.6192 -0.1844,-0.20379 -0.3877,-0.76666 -0.4517,-1.25081 -0.064,-0.48415 -0.3104,-1.28927 -0.5477,-1.78917 -0.2372,-0.49989 -0.4912,-1.28905 -0.5645,-1.75368 -0.073,-0.46464 -0.2668,-0.97846 -0.4302,-1.14183 -0.1634,-0.16337 -0.3725,-0.70347 -0.4646,-1.20023 -0.092,-0.49676 -0.3635,-1.22202 -0.603,-1.61169 -0.2394,-0.38967 -0.4353,-0.96383 -0.4353,-1.2759 0,-0.31207 -0.1912,-0.81126 -0.4249,-1.1093 -0.2336,-0.29805 -0.5006,-0.89978 -0.5933,-1.33719 -0.093,-0.43741 -0.30461,-0.95017 -0.47092,-1.13948 -0.16633,-0.1893 -0.4048,-0.79997 -0.52995,-1.35703 -0.12518,-0.55706 -0.36949,-1.11793 -0.54293,-1.24637 -0.17344,-0.12845 -0.38492,-0.58472 -0.46995,-1.01392 -0.085,-0.42921 -0.29385,-0.94047 -0.46402,-1.13613 -0.17019,-0.19566 -0.42984,-0.73101 -0.57699,-1.18966 -0.14717,-0.45865 -0.41573,-0.95687 -0.5968,-1.10714 -0.18105,-0.15027 -0.3292,-0.45141 -0.3292,-0.66921 0,-0.21779 -0.18965,-0.63983 -0.42142,-0.93788 -0.23176,-0.29804 -0.54347,-0.9163 -0.69264,-1.37389 -0.1492,-0.45761 -0.41971,-0.88896 -0.60113,-0.95858 -0.18141,-0.0696 -0.32984,-0.38541 -0.32984,-0.70177 0,-0.31635 -0.18971,-0.76489 -0.42157,-0.99675 -0.23186,-0.23186 -0.48762,-0.68484 -0.5684,-1.00662 -0.0808,-0.32178 -0.28057,-0.72002 -0.44404,-0.88498 -0.16347,-0.16496 -0.45465,-0.60667 -0.64707,-0.98159 -0.79585,-1.55064 -1.22301,-2.27642 -1.38145,-2.34711 -0.0923,-0.0412 -0.37254,-0.5013 -0.6228,-1.02251 -0.52137,-1.0858 -1.34886,-2.48455 -1.56879,-2.65184 -0.0821,-0.0625 -0.27421,-0.39767 -0.42679,-0.74485 -0.15258,-0.34719 -0.43171,-0.69044 -0.62023,-0.76279 -0.18855,-0.0724 -0.34282,-0.28479 -0.34282,-0.47208 0,-0.18729 -0.25563,-0.64433 -0.56806,-1.01563 -0.31243,-0.37131 -0.56806,-0.81704 -0.56806,-0.99051 0,-0.17348 -0.2045,-0.42486 -0.45445,-0.55863 -0.24995,-0.13376 -0.45445,-0.37714 -0.45445,-0.54084 0,-0.16369 -0.2045,-0.48269 -0.45445,-0.70889 -0.24995,-0.2262 -0.45445,-0.54948 -0.45445,-0.7184 0,-0.16891 -0.25562,-0.52938 -0.56806,-0.80104 -0.31243,-0.27166 -0.56806,-0.62378 -0.56806,-0.78249 0,-0.15872 -0.1609,-0.37861 -0.35754,-0.48866 -0.19664,-0.11004 -0.47783,-0.40726 -0.62487,-0.66047 -0.7103,-1.22327 -1.54535,-2.34317 -1.74713,-2.34317 -0.1234,0 -0.22438,-0.15251 -0.22438,-0.33891 0,-0.1864 -0.2045,-0.46662 -0.45445,-0.62272 -0.24995,-0.15609 -0.45445,-0.36594 -0.45445,-0.46633 0,-0.22602 -1.94318,-2.66288 -3.17542,-3.98214 -0.50305,-0.53857 -0.91462,-1.03144 -0.91462,-1.09526 0,-0.0638 -0.40723,-0.54343 -0.90499,-1.0658 -0.49774,-0.52237 -1.59448,-1.71664 -2.43721,-2.65394 -2.91261,-3.23948 -8.93024,-9.08899 -9.3502,-9.08899 -0.14268,0 -0.2594,-0.15658 -0.2594,-0.34796 0,-0.19139 -0.17894,-0.41545 -0.39764,-0.49792 -0.21871,-0.0825 -0.85778,-0.591133 -1.42016,-1.130333 -1.82329,-1.74818 -4.42174,-3.93163 -4.67889,-3.93163 -0.0849,0 -0.38176,-0.23006 -0.65975,-0.51125 -0.27799,-0.28119 -0.7794,-0.71576 -1.11426,-0.96571 -0.33484,-0.24994 -0.87539,-0.68451 -1.20118,-0.9657 -0.32579,-0.28119 -0.66475,-0.51126 -0.75323,-0.51126 -0.14297,0 -0.50612,-0.28428 -1.8574,-1.45405 -0.20925,-0.18114 -0.6118,-0.45316 -0.89458,-0.6045 -0.28278,-0.15134 -0.7188,-0.46583 -0.96896,-0.69887 -0.25012,-0.23305 -0.55474,-0.42372 -0.67692,-0.42372 -0.12216,0 -0.38408,-0.15573 -0.58201,-0.34606 -0.83139,-0.79944 -2.15246,-1.69896 -2.49513,-1.69896 -0.20269,0 -0.49626,-0.2045 -0.65234,-0.45444 -0.15611,-0.24995 -0.4238,-0.45445 -0.5949,-0.45445 -0.1711,0 -0.44329,-0.15928 -0.60485,-0.35396 -0.16158,-0.19468 -0.60866,-0.50174 -0.99354,-0.68236 -0.38487,-0.18062 -1.15989,-0.63402 -1.72227,-1.00757 -0.56238,-0.37354 -1.3037,-0.79224 -1.64738,-0.93044 -0.34367,-0.1382 -0.62486,-0.33242 -0.62486,-0.43159 0,-0.0992 -0.38924,-0.33607 -0.86496,-0.52642 -0.47574,-0.19034 -0.99406,-0.50163 -1.15182,-0.69174 -0.15779,-0.19011 -0.57802,-0.4096 -0.93387,-0.48775 -0.35584,-0.0782 -0.70129,-0.28359 -0.76763,-0.45652 -0.0663,-0.17293 -0.48536,-0.38283 -0.93108,-0.46645 -0.44575,-0.0836 -0.88568,-0.27592 -0.97766,-0.42733 -0.16128,-0.26554 -2.97699,-1.71795 -3.33047,-1.71795 -0.0954,0 -0.43341,-0.20451 -0.75117,-0.454451 -0.31775,-0.24995 -0.75466,-0.45445 -0.9709,-0.45445 -0.21624,0 -0.63702,-0.19118 -0.93506,-0.42484 -0.29804,-0.23366 -0.86715,-0.49586 -1.26468,-0.58267 -0.39753,-0.0868 -0.83916,-0.29806 -0.9814,-0.46945 -0.14225,-0.17139 -0.58388,-0.38265 -0.98141,-0.46946 -0.39753,-0.0868 -0.96663,-0.349 -1.26468,-0.58266 -0.29804,-0.23366 -0.7272,-0.42484 -0.95368,-0.42484 -0.22648,0 -0.89255,-0.25563 -1.48016,-0.56806 -0.5876,-0.31244 -1.26708,-0.56806 -1.50995,-0.56806 -0.24286,0 -0.70155,-0.20451 -1.01931,-0.45445 -0.31775,-0.24995 -0.83307,-0.45445 -1.14514,-0.45445 -0.31207,0 -0.88623,-0.19592 -1.2759,-0.43537 -0.38967,-0.23946 -1.1175,-0.50804 -1.61739,-0.59685 -0.49989,-0.0888 -1.0799,-0.31056 -1.2889,-0.49278 -0.20901,-0.18222 -0.82252,-0.38666 -1.36335,-0.45431 -0.54084,-0.0677 -1.2901,-0.30564 -1.66502,-0.52886 -0.37492,-0.22322 -1.19293,-0.47847 -1.81779,-0.56721 -0.62487,-0.0887 -1.30104,-0.30538 -1.50261,-0.48141 -0.20156,-0.17603 -0.91732,-0.3802 -1.59057,-0.45371 -0.67325,-0.0735 -1.46088,-0.28162 -1.75029,-0.46247 -0.28942,-0.18085 -1.15855,-0.42798 -1.93141,-0.54917 -0.77287,-0.1212 -1.71918,-0.36615 -2.10292,-0.54435 -0.38374,-0.17819 -1.40626,-0.420402 -2.27225,-0.538242 -0.86599,-0.11785 -1.98353,-0.37289 -2.48343,-0.56678 -0.49989,-0.19388 -1.49939,-0.357 -2.22111,-0.36248 -0.72172,-0.005 -1.89242,-0.2139 -2.60156,-0.46314 -0.81473,-0.28635 -2.21364,-0.50679 -3.80033,-0.59886 -1.38105,-0.0801 -2.61325,-0.21931 -2.73823,-0.3093 -0.50537,-0.36389 -1.57625,-0.48191 -6.24867,-0.68868 -2.68693,-0.1189 -5.29433,-0.31736 -5.79423,-0.44101 -1.39467,-0.345 -10.72266,-0.2758 -13.8607,0.10283 -1.49968,0.18094 -4.05596,0.33431 -5.68061,0.34081 -1.83506,0.007 -3.51335,0.14483 -4.43088,0.36296 -0.81233,0.19313 -2.60172,0.44745 -3.97643,0.56516 -1.37471,0.1177 -2.90848,0.36499 -3.40837,0.54952 -0.49989,0.18454 -1.84606,0.43224 -2.99148,0.55045 -1.14543,0.11822 -2.37244,0.36116 -2.7267,0.53988 -0.35426,0.17872 -1.34328,0.38731 -2.19783,0.46355 -0.85455,0.0762 -1.87706,0.300512 -2.27225,0.498402 -0.39519,0.19788 -1.42115,0.44851 -2.27993,0.55694 -0.85877,0.10843 -1.65556,0.29131 -1.77064,0.40639 -0.19348,0.19348 -1.88518,-0.50937 -2.54598,-1.05779 -0.14277,-0.11848 -0.56576,-0.291602 -0.93998,-0.384692 -0.37422,-0.0931 -0.93603,-0.34778 -1.24846,-0.56596 -0.31243,-0.21818 -1.0543,-0.46334 -1.64859,-0.54478 -0.59429,-0.0815 -1.36118,-0.29449 -1.70419,-0.47342 -0.88848,-0.46348 -6.18768,-0.45884 -7.08698,0.006 -0.3556,0.18389 -1.09184,0.39858 -1.6361,0.47709 -0.54425,0.0785 -1.24518,0.32023 -1.55762,0.53717 -0.31243,0.21694 -0.84568,0.46344 -1.185,0.54777 -0.73655,0.183072 -2.67781,1.455582 -2.67781,1.755332 0,0.11612 -0.14173,0.21113 -0.31496,0.21113 -0.38709,0 -2.8563,2.36018 -3.44696,3.29475 -0.23696,0.37492 -0.5611,0.76344 -0.72031,0.86338 -0.15922,0.0999 -0.28949,0.28969 -0.28949,0.42165 0,0.13197 -0.25563,0.54374 -0.56806,0.91504 -0.31243,0.37131 -0.56806,0.83007 -0.56806,1.01948 0,0.1894 -0.19602,0.59357 -0.43561,0.89815 -0.23958,0.30458 -0.50777,0.9809 -0.59596,1.50294 -0.30447,1.802131 -1.44667,2.924831 -4.2514,4.178821 -0.46865,0.20953 -0.8521,0.45531 -0.8521,0.54616 0,0.0909 -0.33231,0.29563 -0.73848,0.45506 -0.40616,0.15943 -0.84073,0.4019 -0.9657,0.53882 -0.12497,0.13693 -0.5851,0.43305 -1.02251,0.65805 -1.81319,0.9327 -2.16725,1.15101 -2.34034,1.443 -0.0999,0.1686 -0.32216,0.30654 -0.49382,0.30654 -0.17167,0 -0.61591,0.25563 -0.98722,0.56806 -0.37131,0.31243 -0.77563,0.56806 -0.89851,0.56806 -0.12287,0 -0.3556,0.15929 -0.51717,0.35397 -0.16157,0.19468 -0.63422,0.4962 -1.05033,0.67007 -0.41612,0.17386 -0.75657,0.4289 -0.75657,0.56675 0,0.13785 -0.30676,0.35757 -0.68168,0.48827 -0.37492,0.1307 -0.68167,0.33241 -0.68167,0.44825 0,0.11585 -0.27845,0.31649 -0.61877,0.44588 -0.34032,0.12939 -0.77489,0.38195 -0.96571,0.56124 -0.73516,0.69078 -1.7852,1.4645 -1.9875,1.4645 -0.11639,0 -0.45177,0.25563 -0.74529,0.56806 -0.29351,0.31244 -0.66562,0.56806 -0.8269,0.56806 -0.16128,0 -0.40268,0.20451 -0.53644,0.45445 -0.13377,0.24995 -0.35571,0.45445 -0.4932,0.45445 -0.13749,0 -0.47901,0.23007 -0.75893,0.51126 -0.27993,0.28119 -0.88603,0.76688 -1.3469,1.07931 -0.46087,0.31244 -1.30444,1.00263 -1.8746,1.53377 -0.57016,0.53114 -1.08882,0.9657 -1.15257,0.9657 -0.0638,0 -0.3412,0.23007 -0.61654,0.51126 -0.27534,0.28119 -0.8877,0.81801 -1.36079,1.19293 -1.46701,1.162603 -2.62092,2.196353 -4.81909,4.317273 -1.16572,1.12476 -2.24737,2.15749 -2.40366,2.29495 -0.15629,0.13746 -0.61294,0.59759 -1.01479,1.02251 -0.40184,0.42492 -0.83723,0.87483 -0.96752,0.9998 -0.91351,0.87621 -3.4119,3.59847 -4.45476,4.85394 -0.68911,0.82959 -1.63163,1.92807 -2.09449,2.44106 -1.38901,1.53943 -2.64629,3.0554 -2.86879,3.45909 -0.11517,0.20895 -0.65558,0.9423 -1.20091,1.62965 -0.54533,0.68736 -1.16686,1.47878 -1.38117,1.75873 -0.21431,0.27994 -0.61973,0.7709 -0.90092,1.09102 -0.28119,0.32012 -0.51125,0.67375 -0.51125,0.78585 0,0.11209 -0.23007,0.46572 -0.51126,0.78584 -1.162,1.32287 -2.65898,3.49857 -2.66575,3.87441 -0.002,0.12615 -0.20864,0.35708 -0.45859,0.51318 -0.24994,0.15609 -0.45444,0.42047 -0.45444,0.5875 0,0.16703 -0.2019,0.4864 -0.44865,0.70972 -0.24676,0.22331 -0.51248,0.60713 -0.5905,0.85293 -0.078,0.2458 -0.33625,0.64132 -0.57386,0.87893 -0.23761,0.23761 -0.43202,0.62067 -0.43202,0.85125 0,0.23058 -0.2045,0.6043 -0.45444,0.8305 -0.24995,0.2262 -0.45445,0.50848 -0.45445,0.62729 0,0.1188 -0.25563,0.51981 -0.56807,0.89111 -0.31243,0.37131 -0.56806,0.86668 -0.56806,1.10083 0,0.23415 -0.14237,0.50749 -0.31638,0.60743 -0.17401,0.0999 -0.4815,0.53959 -0.6833,0.977 -0.20181,0.43741 -0.61688,1.20429 -0.92238,1.70418 -0.3055,0.4999 -0.67356,1.16453 -0.81793,1.47696 -0.14436,0.31244 -0.35509,0.72144 -0.46829,0.9089 -0.1132,0.18746 -0.40774,0.74984 -0.65453,1.24974 -0.2468,0.49989 -0.54578,1.06227 -0.6644,1.24973 -0.11863,0.18746 -0.35674,0.64759 -0.52913,1.02251 -0.17239,0.37492 -0.42302,0.88618 -0.55696,1.13612 -0.70298,1.31192 -1.43066,3.00414 -1.43066,3.32701 0,0.2016 -0.1555,0.49561 -0.34556,0.65334 -0.19005,0.15773 -0.45782,0.73264 -0.59503,1.27756 -0.13722,0.54492 -0.33549,0.99077 -0.44061,0.99077 -0.10512,0 -0.31513,0.43457 -0.46667,0.96571 -0.15156,0.53113 -0.41007,1.12579 -0.57449,1.32145 -0.16441,0.19566 -0.36469,0.70691 -0.44505,1.13612 -0.0804,0.42921 -0.32618,1.08713 -0.54625,1.46205 -0.22007,0.37492 -0.46822,1.004 -0.55144,1.39796 -0.0832,0.39396 -0.34987,1.10577 -0.59257,1.58181 -0.2427,0.47604 -0.44127,1.11704 -0.44127,1.42445 0,0.30742 -0.15252,0.72747 -0.33894,0.93346 -0.18642,0.20599 -0.43928,0.90361 -0.56192,1.55028 -0.12263,0.64666 -0.37115,1.40643 -0.55225,1.68838 -0.1811,0.28195 -0.40022,0.99997 -0.48694,1.59558 -0.0867,0.59562 -0.35031,1.46082 -0.58576,1.92265 -0.23546,0.46184 -0.42811,1.20304 -0.42811,1.64712 0,0.44408 -0.19017,1.16377 -0.42261,1.59933 -0.23244,0.43556 -0.49771,1.39819 -0.5895,2.13918 -0.0918,0.74099 -0.31418,1.57205 -0.4942,1.8468 -0.18003,0.27475 -0.41269,1.26077 -0.51702,2.19116 -0.10434,0.93039 -0.31389,1.92363 -0.46566,2.20722 -0.15176,0.28358 -0.36466,1.45336 -0.47309,2.59949 -0.10844,1.14614 -0.35802,2.46889 -0.55463,2.93944 -0.2089,0.49997 -0.41657,1.91532 -0.49967,3.40552 -0.0782,1.40249 -0.29005,2.95898 -0.47076,3.45888 -0.22107,0.61155 -0.396,2.61859 -0.5347,6.13506 -0.11338,2.87439 -0.30799,5.91038 -0.43246,6.74665 -0.29307,1.96901 -0.29122,7.86026 0.003,9.99472 0.12621,0.9151 0.32191,4.06672 0.43489,7.0036 0.1382,3.59212 0.31218,5.63725 0.53157,6.24867 0.17937,0.4999 0.39094,2.07076 0.47015,3.49081 0.0886,1.58756 0.2774,2.84926 0.49032,3.27608 0.19047,0.38179 0.40849,1.57171 0.48451,2.64425 0.076,1.07255 0.29053,2.25684 0.47669,2.63177 0.18616,0.37492 0.42394,1.48282 0.5284,2.46201 0.10446,0.97919 0.33972,2.00894 0.52278,2.28834 0.18307,0.2794 0.40804,1.10971 0.49992,1.84514 0.0919,0.73543 0.35492,1.7507 0.58451,2.25615 0.22959,0.50546 0.41969,1.22971 0.42243,1.60945 0.003,0.37974 0.19764,1.0683 0.4331,1.53014 0.23546,0.46183 0.49986,1.31821 0.58756,1.90305 0.0877,0.58484 0.35519,1.42853 0.59441,1.87486 0.23922,0.44634 0.43533,1.06866 0.43579,1.38295 4.8e-4,0.31428 0.18812,0.8785 0.41701,1.25383 0.22889,0.37532 0.47547,1.12458 0.54796,1.66501 0.0725,0.54044 0.28518,1.15361 0.47266,1.36262 0.18748,0.209 0.41328,0.78901 0.50178,1.2889 0.0885,0.4999 0.33925,1.1134 0.55723,1.36335 0.21797,0.24995 0.45659,0.85057 0.53027,1.33472 0.0737,0.48415 0.28033,1.04653 0.45922,1.24974 0.1789,0.2032 0.39881,0.72734 0.4887,1.16475 0.0899,0.4374 0.34426,0.99978 0.56527,1.24973 0.22102,0.24995 0.47125,0.84326 0.55607,1.31848 0.0848,0.47522 0.2899,0.9161 0.45572,0.97974 0.16583,0.0636 0.36512,0.51355 0.44288,0.99981 0.0778,0.48627 0.28093,0.96565 0.45148,1.06529 0.17056,0.0996 0.37539,0.39193 0.45519,0.64953 0.16853,0.5441 0.25344,0.49716 -5.1981,2.87321 -5.66537,2.46922 -5.04944,2.28063 -5.22059,1.59868 z"
         style="vector-effect:none;fill:#ffffff;fill-opacity:1;stroke:none;stroke-width:1;stroke-linecap:butt;stroke-linejoin:miter;stroke-miterlimit:4;stroke-dasharray:none;stroke-dashoffset:0;stroke-opacity:1" />
      <path
         id="path4775-5"
         d="m 706.22815,274.12474 c -37.16476,-80.51548 3.4522,-157.13791 60.60819,-189.348763 2.24182,8.89897 2.50726,9.55938 2.84526,11.35861 -70.13175,48.239643 -77.26394,116.647723 -53.26597,173.593373 -0.13761,0.11777 -4.68731,2.35499 -7.09461,3.48862 -2.53047,1.19165 -2.75307,1.257 -3.09321,0.90816 z"
         style="vector-effect:none;fill:#ffffff;fill-opacity:1;stroke:none;stroke-width:1;stroke-linecap:butt;stroke-linejoin:miter;stroke-miterlimit:4;stroke-dasharray:none;stroke-dashoffset:0;stroke-opacity:1" />
      <path
         id="path4801-9"
         d="m 832.27205,51.177832 c -3.91046,0.12339 -7.87604,-0.206748 -11.75354,0.341725 -3.62885,0.654816 -7.33783,0.783912 -10.95028,1.554624 -2.59752,0.215524 -5.09711,1.070781 -7.67775,1.437346 -1.87923,0.534245 -3.82742,0.706289 -5.65394,1.424263 -1.90341,0.287268 -3.6607,1.066595 -5.54437,1.432581 -1.55967,0.664473 -3.2726,0.869423 -4.79301,1.632293 -1.63862,0.27319 -3.10903,1.06452 -4.68074,1.53243 -1.35691,0.61935 -2.8081,1.00413 -4.14641,1.6567 -1.1872,0.19151 -2.17139,1.01117 -3.34978,1.30033 -7.56766,3.288822 -14.92894,7.031952 -21.90832,11.447322 -11.23128,6.792571 -21.3732,15.289741 -30.51018,24.687381 -5.26966,5.399713 -10.12016,11.191283 -14.63096,17.235553 -1.8058,2.82372 -3.91976,5.50673 -5.58741,8.39177 -1.02138,1.24145 -1.65156,2.77235 -2.66945,4.00572 -0.59588,1.63748 -1.73736,3.02603 -2.52166,4.58754 -2.00487,3.45008 -3.65149,7.07728 -5.39895,10.67212 -2.15544,4.65035 -3.99343,9.42098 -5.70266,14.24226 -0.85615,1.52793 -0.88206,3.38861 -1.65841,4.97383 -0.74403,2.11217 -1.13248,4.31873 -1.89153,6.41846 -0.86744,3.63332 -1.88048,7.25716 -2.4471,10.94358 -0.69861,2.56669 -0.81014,5.19442 -1.33982,7.78337 -0.30175,3.02186 -0.75165,6.02842 -1.11147,9.03808 -0.21247,9.18253 -0.21329,18.37574 -0.0154,27.55849 0.2678,2.85504 0.80794,5.65889 0.98176,8.54123 0.54417,2.57066 0.73134,5.18131 1.28879,7.74295 0.78956,3.17079 1.18608,6.48117 2.12224,9.64639 0.46341,2.30055 1.33031,4.47076 1.78984,6.76792 0.84619,2.07606 1.28338,4.29911 2.11204,6.37205 1.27914,0.71736 2.94871,0.27174 4.36695,0.44274 2.66549,-0.11963 5.40831,0.28558 8.03143,-0.23282 1.03511,-0.68312 -0.4702,-1.71641 -0.44113,-2.57004 -1.00994,-3.46794 -2.3187,-6.85811 -3.20068,-10.37023 -0.75985,-2.61504 -1.46546,-5.24607 -1.95093,-7.93644 -0.39447,-2.00081 -0.97151,-3.97319 -1.15166,-6.02242 -0.84252,-3.07454 -0.804,-6.30575 -1.43701,-9.45592 -0.40727,-5.53693 -0.7924,-11.0983 -0.98568,-16.62689 0.18566,-5.48392 0.53554,-11.01535 0.98124,-16.47423 0.64809,-3.42312 0.7523,-6.9262 1.60566,-10.31519 0.41629,-3.76443 1.56249,-7.40938 2.37121,-11.10161 0.88361,-2.56085 1.39325,-5.21017 2.30869,-7.77628 1.29273,-3.78091 2.52317,-7.57664 4.08955,-11.27153 1.96747,-4.24045 3.72328,-8.56979 6.02536,-12.6453 2.37484,-4.42075 4.89139,-8.84154 7.68933,-12.95208 2.91055,-4.34861 6.06227,-8.49054 9.36133,-12.56579 8.51584,-10.32931 18.50672,-19.401793 29.44543,-27.113443 4.68048,-3.23611 9.50003,-6.21476 14.4519,-9.01298 1.85664,-0.80297 2.47512,-2.84823 3.07884,-4.561321 1.46175,-3.62702 4.3152,-6.39836 7.42163,-8.65939 4.20907,-2.615922 9.5875,-3.521842 14.33602,-1.916112 2.20839,0.47601 4.05134,1.935622 6.17011,2.611552 3.9191,-0.77139 7.81297,-1.77537 11.71814,-2.501212 2.78109,-0.46126 5.5057,-1.09358 8.31029,-1.29908 6.11549,-1.06613 12.36729,-0.90533 18.54275,-1.37353 5.58484,-0.21426 11.15249,0.64635 16.71491,0.86425 3.07479,0.50713 6.24396,0.7419 9.31137,1.40535 1.90281,0.46945 3.88029,0.49235 5.7612,1.097342 2.33665,0.37062 4.55097,1.1273 6.87373,1.60095 1.81613,0.60508 3.69604,0.97697 5.47508,1.67158 1.66306,0.3875 3.23061,1.0732 4.8876,1.48072 2.09568,0.91272 4.31009,1.53842 6.39824,2.46841 5.24837,1.97141 10.26375,4.556751 15.2527,7.130201 3.05563,1.52235 5.92904,3.36966 8.86476,5.10376 1.33349,0.84447 2.5134,1.85014 3.94078,2.53429 8.22516,5.67856 15.99781,12.050943 22.89272,19.290813 6.78738,6.63744 12.69331,14.15336 17.98507,22.02412 0.97057,1.82935 2.42219,3.3548 3.32584,5.22588 3.10393,5.08545 5.79991,10.36203 8.23819,15.8092 0.26233,0.91698 1.01512,1.62028 1.16543,2.61536 0.78554,1.4966 1.17136,3.1505 1.93456,4.67497 1.0636,3.03479 2.2362,6.0268 3.1434,9.11295 0.7238,1.68814 0.9234,3.53144 1.6083,5.23531 0.6671,2.76184 1.4132,5.51159 2.0304,8.27822 0.3354,2.431 1.1018,4.78033 1.2568,7.24467 1.1078,4.17753 0.6145,8.74258 2.4587,12.72946 1.1356,1.90447 3.4421,2.43748 5.511,2.27092 2.2867,0.14618 4.2108,-1.63239 5.0766,-3.59832 0.2302,-2.82716 0.1883,-5.72551 -0.248,-8.53468 -0.6247,-2.745 -0.6578,-5.61084 -1.4184,-8.35494 -0.2034,-2.37456 -1.0608,-4.60096 -1.3554,-6.95742 -0.7001,-2.15106 -0.9827,-4.37336 -1.7552,-6.5043 -0.2275,-1.72518 -1.0692,-3.2769 -1.3287,-4.98696 -0.7534,-1.78768 -1.1115,-3.711 -1.927,-5.48268 -0.8723,-2.5979 -1.8152,-5.15855 -2.8757,-7.67736 -1.0999,-2.34892 -1.9036,-4.80894 -3.1023,-7.12108 -2.5504,-5.06802 -4.9326,-10.22135 -8.0048,-14.98928 -2.77704,-4.63348 -5.84053,-9.12855 -9.10595,-13.44395 -4.83475,-6.81792 -10.5978,-12.89488 -16.58337,-18.703773 -3.5617,-3.58272 -7.24233,-7.04314 -11.26834,-10.10406 -2.67923,-2.29269 -5.5972,-4.31969 -8.4122,-6.39291 -2.11682,-1.59321 -4.47462,-2.877861 -6.56333,-4.478371 -3.9733,-2.24576 -7.8847,-4.67768 -11.99564,-6.71191 -3.23775,-1.68477 -6.52396,-3.298992 -9.89825,-4.655972 -0.73863,-0.717 -1.92776,-0.75589 -2.81767,-1.32873 -1.35395,-0.51606 -2.72041,-0.96934 -4.04744,-1.57948 -2.85355,-1.01291 -5.65337,-2.15288 -8.58127,-2.94549 -2.31074,-0.806276 -4.66791,-1.296923 -6.98038,-2.082164 -2.51987,-0.581681 -5.03417,-1.195135 -7.52383,-1.85876 -2.89676,-0.360777 -5.73061,-1.200651 -8.62299,-1.452551 -3.22964,-0.80886 -6.55841,-0.752204 -9.82297,-1.390331 -6.44179,-0.346219 -12.90941,-0.146855 -19.35853,-0.202016 z"
         style="vector-effect:none;fill:#ffffff;fill-opacity:1;stroke:none;stroke-width:1;stroke-linecap:butt;stroke-linejoin:miter;stroke-miterlimit:4;stroke-dasharray:none;stroke-dashoffset:0;stroke-opacity:1" />
      <path
         id="path4803-4"
         d="m 834.96369,67.048936 c -4.99457,0.11361 -10.03941,-0.0736 -14.99061,0.66836 -2.67607,0.70425 -5.53261,0.36547 -8.16367,1.28347 -1.83672,0.27354 -3.72283,0.41609 -5.48667,1.07399 -1.53453,0.26453 -3.19192,0.21562 -4.50854,1.15165 -1.41261,0.0336 -0.89178,1.11806 -0.18684,1.73481 0.21785,0.67664 0.63166,1.19498 1.06777,1.70951 0.31382,1.11509 1.19931,1.9738 1.23288,3.174931 0.89594,1.29841 0.68913,2.99705 1.37178,4.35055 1.2617,0.92348 2.60203,-0.57922 3.94139,-0.5036 2.43953,-0.2246 4.73876,-1.18552 7.18906,-1.17839 2.01373,-0.29483 3.90867,-0.92785 5.94512,-0.87606 4.05608,-0.0792 8.03572,-0.96083 12.09745,-0.8184 4.11694,-0.0361 8.24013,-0.1026 12.30784,0.56344 3.10538,0.23308 6.19865,0.23973 9.21144,1.04301 1.88343,0.19215 3.78736,0.29949 5.56264,0.95918 1.78311,0.21035 3.53625,0.52477 5.23859,1.08686 1.17555,0.0979 2.29012,0.40795 3.39905,0.72206 1.13653,0.23828 1.98266,-0.55982 2.99608,-0.87472 0.98294,-0.78329 2.33113,-0.79136 3.36088,-1.49072 1.34623,-0.25435 2.68054,-0.54751 3.96667,-0.99411 2.26471,-0.21078 4.69535,-0.37556 6.8447,0.57605 1.21292,0.0899 2.30288,0.55229 3.32538,1.16719 0.7853,0.11272 1.23354,0.89755 1.99043,1.12547 1.29544,1.21718 2.83335,2.40923 3.59432,4.02481 0.2517,0.91371 1.15374,1.53396 1.13213,2.57757 0.59095,1.29497 0.844,2.67956 1.03183,4.0856 0.48553,1.29539 1.79441,2.03068 2.96679,2.56249 0.79988,0.75426 1.91303,0.95899 2.73379,1.69353 1.11691,0.15207 1.6679,1.36045 2.76614,1.67135 0.85467,0.21665 1.32278,0.955113 2.01401,1.359353 0.96535,0.12903 1.50579,1.22528 2.4291,1.56236 3.40402,2.30612 6.70619,4.7405 9.76336,7.47647 4.45628,3.2906 8.07515,7.56199 12.06818,11.41321 1.91653,1.91268 3.77707,3.89648 5.37042,6.08885 0.95119,0.91195 1.49481,2.11099 2.50169,2.99253 1.47876,2.14997 3.24522,4.14261 4.58133,6.36984 0.86095,1.08476 1.59529,2.27781 2.24517,3.49269 0.80901,0.46309 0.6844,1.6859 1.51513,2.1391 0.96998,1.76341 1.91653,3.58593 3.06043,5.2164 0.17284,1.06146 1.16235,1.67003 1.3163,2.7267 0.71826,1.0517 1.18444,2.25701 1.80759,3.3489 0.29413,1.08503 1.0765,1.97692 1.27681,3.1159 0.85346,0.79008 0.65085,2.1603 1.54042,2.9628 0.22233,1.367 1.21908,2.45996 1.34782,3.86992 0.32823,0.70195 0.86681,1.23425 0.89647,2.08052 0.79802,1.70599 1.14595,3.56413 1.92076,5.27854 0.17284,1.53932 1.08647,2.87913 1.20358,4.44286 0.64118,1.30301 0.82847,2.72545 1.09973,4.13886 0.87888,1.84934 0.70472,3.98853 1.47873,5.87855 0.28418,1.7589 0.4387,3.58593 0.96837,5.26211 0.36003,2.60618 0.39994,5.32279 1.10639,7.91514 0.14749,1.65274 0.50357,3.39879 1.96558,4.41312 0.73159,0.70757 1.67334,1.10466 2.56915,1.55729 3.5501,0.87716 7.5921,-2.30246 7.1585,-6.05074 -0.01,-3.17191 -0.1841,-6.37352 -1.0165,-9.44001 -0.1117,-1.99496 -0.5438,-4.00016 -1.0155,-5.87582 -0.072,-1.8056 -0.7868,-3.52132 -1.1416,-5.28794 -0.032,-1.67517 -1.0596,-3.09357 -1.1104,-4.7544 -0.4871,-1.33598 -1.0002,-2.65732 -1.1827,-4.08161 -0.751,-1.31086 -0.7279,-2.91009 -1.50541,-4.20499 -0.24768,-1.17956 -0.76033,-2.24059 -1.21423,-3.33292 -0.22313,-1.37309 -1.13158,-2.49423 -1.34515,-3.87747 -0.74923,-0.9988 -0.67988,-2.35692 -1.49249,-3.31605 -0.37588,-1.3711 -1.1777,-2.53199 -1.62475,-3.8717 -0.70574,-0.85488 -0.59413,-2.07389 -1.47385,-2.82211 -0.36268,-1.11086 -1.14484,-2.0129 -1.39131,-3.15185 -0.73232,-0.55293 -0.78011,-1.49023 -1.21334,-2.23364 -1.09518,-1.01806 -1.38788,-2.70049 -2.38275,-3.83619 -0.41465,-1.18681 -1.42206,-1.92649 -1.78895,-3.14697 -0.57046,-0.97058 -1.38544,-1.79442 -1.6851,-2.88646 -0.77553,-0.56653 -0.99232,-1.51719 -1.72505,-2.1542 -0.12104,-0.64872 -0.60955,-1.09256 -1.02206,-1.54131 -0.49145,-1.04017 -1.44822,-1.82513 -1.94863,-2.89493 -2.38112,-3.05933 -4.79122,-6.09678 -7.37031,-8.99706 -0.60617,-0.72662 -1.09113,-1.63449 -1.80974,-2.19504 -0.0886,-0.75937 -1.06779,-0.61643 -1.27991,-1.34782 -2.76005,-2.87996 -5.48781,-5.85345 -8.53557,-8.41574 -3.1269,-2.98557 -6.59412,-5.686793 -9.97702,-8.405983 -1.58106,-1.36589 -3.44695,-2.37332 -5.02424,-3.74965 -1.54953,-0.63617 -2.6256,-2.11679 -4.25026,-2.67432 -0.96298,-0.47653 -1.59714,-1.39671 -2.67654,-1.66868 -1.22589,-1.04506 -2.87358,-1.497 -4.01948,-2.57136 -1.02725,-0.1733 -1.63157,-1.13445 -2.65568,-1.295 -0.73754,-0.61704 -1.68361,-0.83783 -2.45865,-1.32252 -0.81683,-0.6884 -1.92333,-0.82679 -2.76708,-1.48761 -1.09501,-0.17615 -1.78675,-1.19155 -2.91397,-1.24663 -0.9621,-0.85056 -2.3172,-0.89945 -3.31118,-1.6851 -1.48056,-0.41351 -2.81476,-1.215911 -4.29818,-1.604771 -1.01883,-0.75514 -2.38285,-0.85928 -3.49181,-1.48584 -1.32692,-0.14574 -2.30394,-1.14279 -3.65823,-1.19337 -1.25245,-0.34955 -2.39304,-1.03178 -3.72967,-1.14367 -1.23502,-0.64501 -2.60247,-0.86776 -3.95646,-1.17296 -1.48882,-0.71719 -3.17201,-0.64885 -4.65988,-1.34737 -1.73212,-0.41022 -3.52504,-0.50676 -5.20311,-1.12737 -1.86942,-0.26841 -3.7416,-0.49752 -5.54878,-1.04413 -2.51793,-0.25797 -4.95999,-0.42915 -7.4264,-0.95854 -5.59685,-0.48277 -11.22743,-0.45372 -16.84092,-0.47005 z"
         style="vector-effect:none;fill:#ffffff;fill-opacity:1;stroke:none;stroke-width:1;stroke-linecap:butt;stroke-linejoin:miter;stroke-miterlimit:4;stroke-dasharray:none;stroke-dashoffset:0;stroke-opacity:1" />
      <path
         id="path4805-2"
         d="m 835.52065,83.003477 c -5.0732,0.16373 -10.19263,0.18019 -15.2165,0.92754 -2.47457,0.64159 -5.12933,0.28331 -7.54101,1.23864 -1.78687,0.33122 -3.6387,0.3708 -5.30517,1.1552 -0.92922,0.0469 -2.04506,0.375 -2.08851,1.48494 -0.74346,1.65125 -0.32635,3.65064 -1.42459,5.19288 -0.11042,1.18857 -1.13072,1.96213 -1.35847,3.131 -0.43196,0.41188 -0.65364,1.04952 -1.04159,1.42104 -0.74289,0.1676 -0.54359,1.0605 -1.08642,1.37888 -0.20737,1.173343 1.55835,1.132083 2.28906,0.84681 1.58405,-0.0209 2.83537,-1.13599 4.42871,-1.09944 1.61564,-0.34895 3.12546,-1.09077 4.81471,-1.11835 1.67967,-0.49127 3.37738,-0.90418 5.14723,-0.94343 1.70062,-0.2158 3.21929,-0.94781 4.97282,-0.85419 3.248,-0.0148 6.40189,-0.9082 9.6453,-0.81509 4.55929,-0.008 9.21169,-0.23956 13.69752,0.28064 3.26291,0.61974 6.59946,0.31297 9.78486,1.28524 1.59833,0.15213 3.27383,0.45975 4.8445,0.24631 0.24336,-1.41324 1.08109,-2.61385 1.66025,-3.89833 0.70069,-0.33985 0.40822,-1.33662 1.15254,-1.67489 0.78054,-1.52562 2.08376,-2.70563 3.14875,-4.0177 0.0533,-1.03698 -1.45466,-0.72398 -2.04103,-1.30343 -1.94118,-0.55678 -4.00969,-0.52565 -5.91716,-1.21911 -2.15439,-0.29076 -4.34157,-0.35335 -6.44617,-0.91023 -5.35384,-0.50489 -10.74231,-0.73802 -16.11963,-0.73493 z"
         style="vector-effect:none;fill:#ffffff;fill-opacity:1;stroke:none;stroke-width:1;stroke-linecap:butt;stroke-linejoin:miter;stroke-miterlimit:4;stroke-dasharray:none;stroke-dashoffset:0;stroke-opacity:1" />
      <path
         id="path4807-4"
         d="m 833.57948,98.655337 c -2.73736,-0.0825 -5.44521,0.26351 -8.09913,0.65441 -2.58225,0.21308 -5.19205,0.33027 -7.68675,1.051723 -1.83167,0.1673 -3.67353,0.33734 -5.39527,1.01612 -1.5645,0.19847 -3.11478,0.45386 -4.54582,1.13125 -1.83713,-0.10636 -1.27664,1.31071 -0.14036,2.00656 0.98686,0.93527 1.90132,1.99945 2.57237,3.13306 0.72543,0.1398 0.7571,1.13075 1.45211,1.39486 0.27141,1.07905 1.45329,1.66642 1.98457,2.64013 0.80472,1.27394 2.63474,1.35544 3.76173,0.50817 2.19956,-0.39749 4.53217,-0.37475 6.70179,-1.05003 7.70425,-0.65225 15.49447,-0.37997 23.21463,-0.1713 2.37294,0.28661 4.70081,0.97896 7.12098,0.9691 1.37194,0.26124 2.60433,-0.33513 3.75029,-0.9833 1.12405,-0.24309 2.77124,-0.74796 2.85718,-2.00952 -1.04357,-1.00347 -0.92217,-2.51525 -1.62253,-3.71814 -0.41092,-1.43091 0.37195,-3.68378 -1.43302,-4.39848 -1.60454,-0.41003 -3.29984,-0.39788 -4.87468,-0.962603 -3.04662,-0.3755 -6.08018,-0.53392 -9.10185,-0.97369 -3.49929,-0.23088 -7.01056,-0.25465 -10.51624,-0.23832 z"
         style="vector-effect:none;fill:#ffffff;fill-opacity:1;stroke:none;stroke-width:1;stroke-linecap:butt;stroke-linejoin:miter;stroke-miterlimit:4;stroke-dasharray:none;stroke-dashoffset:0;stroke-opacity:1" />
      <path
         id="path4811-4"
         d="m 772.97043,99.695157 c -0.79246,0.11318 -1.26539,0.896543 -2.06233,1.091743 -0.92545,0.9334 -2.30985,1.29224 -3.35593,2.15219 -0.75838,0.51907 -1.70162,0.7234 -2.21462,1.52468 -0.94853,0.39574 -1.71037,1.13664 -2.64193,1.5706 -0.94002,1.00474 -2.23261,1.63568 -3.20955,2.52876 -1.18664,0.70682 -2.20855,1.71595 -3.35466,2.51323 -2.70558,2.22864 -5.37522,4.55149 -7.96695,6.94601 -0.93185,0.92701 -2.02753,1.86977 -2.85374,2.80689 -0.82567,0.3487 -1.12139,1.43481 -1.88342,1.96234 -1.65174,1.8793 -3.46941,3.64767 -5.01231,5.60486 -0.21867,0.53275 -0.94286,0.76466 -1.066,1.37622 -1.08114,0.39602 -1.23214,1.7792 -2.04931,2.50446 -1.52391,1.73931 -2.80793,3.66579 -4.16165,5.53183 -0.8845,0.51962 -0.77365,1.71044 -1.58474,2.34396 -1.23669,1.24603 -1.58226,3.16261 -2.92202,4.26907 -0.19997,1.06076 -1.11667,1.81145 -1.42504,2.83099 -0.73935,0.69656 -0.94386,1.72205 -1.55817,2.52477 -0.24825,1.02721 -1.19651,1.66475 -1.34604,2.72359 -0.72656,1.07412 -1.16029,2.29567 -1.8329,3.36754 -0.0399,1.09229 -1.11665,1.7965 -1.14455,2.90554 -0.42511,0.65674 -0.94914,1.28492 -0.99944,2.14754 -0.74208,1.13466 -0.84653,2.54815 -1.62385,3.64048 -0.27694,1.03631 -0.53627,2.0503 -1.14012,2.94193 -0.18757,1.1343 -0.66507,2.12448 -1.08864,3.18336 -0.2082,1.59471 -1.21852,2.94398 -1.2555,4.57157 -0.27922,0.86301 -0.93474,1.53465 -0.85298,2.53364 -0.20456,1.62596 -1.12011,3.06529 -1.12154,4.74584 -0.37241,1.59871 -1.02,3.12931 -0.99493,4.81535 -0.45763,2.11899 -0.99358,4.22614 -1.08198,6.41332 -0.3992,2.49536 -0.97878,4.96236 -0.94149,7.51348 -0.2566,8.49903 -0.37221,17.03847 0.41692,25.51263 0.69977,2.58732 0.56336,5.31412 1.22577,7.89828 0.65543,1.88159 0.36383,3.98207 1.23198,5.8071 0.24837,1.42973 0.37297,2.9042 1.05003,4.20099 0.22726,1.31573 0.38275,2.67038 1.10416,3.81932 0.10444,1.12844 0.34671,2.22747 0.90136,3.23041 0.21077,1.14952 0.65201,2.20394 1.11926,3.25348 0.17401,1.52523 1.12025,2.77876 1.43746,4.26312 0.80138,1.05804 0.74017,2.53129 1.5888,3.59122 0.0576,1.41665 1.42668,2.37423 2.79805,2.12592 1.9849,-0.11901 4.11402,0.33019 5.9982,-0.24949 1.31904,-0.81877 2.89159,-1.34364 4.0526,-2.34553 -0.48704,-1.10965 -0.75911,-2.32803 -1.49383,-3.31472 -0.22343,-1.2451 -1.10955,-2.24916 -1.29189,-3.52465 -0.82109,-1.07779 -0.89658,-2.50076 -1.60966,-3.65689 -0.19437,-1.62155 -1.17139,-3.01194 -1.37799,-4.64302 -0.891,-1.42785 -0.72499,-3.22956 -1.53732,-4.69449 -0.29065,-1.34444 -0.48708,-2.70654 -1.01852,-3.98131 -0.14589,-2.0313 -0.81279,-3.95019 -1.16985,-5.93891 -0.0978,-2.59949 -1.15011,-5.05375 -1.03313,-7.64416 -0.0992,-3.57151 -1.01176,-7.05869 -0.88053,-10.63765 -0.029,-4.23674 -0.16013,-8.49714 0.66347,-12.66644 0.25246,-2.89114 0.20719,-5.79958 0.99879,-8.61906 0.2357,-1.75844 0.38531,-3.54131 1.03027,-5.20126 0.17672,-1.52939 0.39562,-3.04067 0.97458,-4.46904 0.16149,-1.99305 1.16647,-3.75556 1.42415,-5.72899 0.82803,-1.35725 0.75549,-3.04606 1.60388,-4.40469 0.15838,-1.02644 0.59637,-1.90736 1.04914,-2.83099 0.12827,-1.29904 1.10143,-2.22225 1.25462,-3.51355 0.38713,-0.69687 0.94187,-1.32403 0.92842,-2.17772 0.74976,-1.22725 1.14862,-2.62175 1.89058,-3.85305 0.27671,-1.09313 1.09772,-1.96698 1.47341,-3.04002 0.62932,-0.77063 0.66556,-1.78876 1.41616,-2.47817 0.18937,-0.70094 0.55471,-1.21854 1.00609,-1.74767 0.26801,-1.14955 1.2359,-1.87769 1.65981,-2.96235 1.17889,-1.65319 2.08144,-3.56216 3.4239,-5.0593 0.87394,-2.00233 2.65876,-3.43181 3.72346,-5.31981 4.77403,-6.12807 10.15914,-11.79362 15.943,-16.96018 2.10812,-1.44296 3.93965,-3.37074 5.28963,-5.5568 0.71712,-1.07397 1.1292,-2.31726 1.5706,-3.49091 0.79568,-0.74286 0.79821,-1.9239 1.63052,-2.67167 0.38853,-0.97827 1.40157,-1.53529 1.83314,-2.53309 1.58454,-2.136 3.72957,-3.91371 5.89116,-5.42509 0.99023,-0.51564 0.26703,-1.97225 -0.60223,-2.22298 -0.43296,-0.79746 -1.36549,-0.9244 -1.97668,-1.541763 -0.26892,-0.12634 -0.56759,-0.19603 -0.86541,-0.18284 z"
         style="vector-effect:none;fill:#ffffff;fill-opacity:1;stroke:none;stroke-width:1;stroke-linecap:butt;stroke-linejoin:miter;stroke-miterlimit:4;stroke-dasharray:none;stroke-dashoffset:0;stroke-opacity:1" />
      <path
         id="path4813-4"
         d="m 787.03395,71.296526 c -1.92023,0.15549 -4.11081,-0.30364 -5.74186,0.95816 -2.10132,0.70629 -3.68041,2.46704 -4.9849,4.19594 -0.64078,0.71449 -0.84255,1.658281 -1.35609,2.456151 -0.37772,1.43978 -0.66776,2.90312 -1.06334,4.33768 -0.30967,1.61543 0.11012,3.19274 0.63375,4.69937 0.56444,3.45228 3.08453,6.29492 5.79156,8.34429 2.62959,1.57898 5.88295,3.08938 8.97715,2.06055 1.09964,-0.67987 2.54055,-0.65027 3.5597,-1.50092 1.6809,-0.90159 2.87665,-2.58346 4.02791,-4.0754 0.19986,-0.93455 1.30675,-1.34544 1.1268,-2.40361 0.35593,-1.3538 1.0765,-2.63068 0.89825,-4.09447 0.40764,-4.02206 -1.58684,-7.83641 -4.17658,-10.771861 -1.78525,-1.82793 -3.90358,-3.70068 -6.48433,-4.17836 -0.40181,-0.0321 -0.80526,-0.0306 -1.20802,-0.0275 z"
         style="vector-effect:none;fill:#ffffff;fill-opacity:1;stroke:none;stroke-width:1;stroke-linecap:butt;stroke-linejoin:miter;stroke-miterlimit:4;stroke-dasharray:none;stroke-dashoffset:0;stroke-opacity:1" />
      <path
         id="path4819-0"
         d="m 872.31405,178.21223 c -1.76283,0.52199 -0.99165,0.14697 -2.50718,1.04451 -1.31919,0.54394 1.8422,-1.81324 0.56962,-1.14221 -0.37673,0.66525 -7.47074,3.31846 -7.70224,4.10006 -5.36429,3.69414 -8.05517,3.38938 -13.01375,7.60795 -0.42919,1.19498 0.3462,2.57544 0.41362,3.81888 4.15596,21.56224 12.33359,43.00848 20.8353,63.19653 -0.74306,-5.03157 -0.73043,-7.41775 -1.32816,-9.37715 -0.20841,-2.24859 -0.69285,-4.44332 -1.12192,-6.6512 -0.10097,-2.15205 -0.55897,-4.24381 -0.94618,-6.34764 -0.0495,-2.51685 -0.58134,-4.96316 -0.96038,-7.43583 -0.17305,-2.75992 -0.57476,-5.55346 -1.01097,-8.27062 -0.2124,-3.26392 -0.32139,-6.58294 -0.91289,-9.79507 -0.36164,-5.29466 -0.52611,-10.66752 -0.70653,-15.97673 0.0574,-0.43217 0.84395,-1.65495 1.01275,-0.57338 0.11542,1.3556 1.16229,2.29183 1.40329,3.59254 0.65055,1.33628 1.02553,2.74068 1.7814,4.01992 0.21387,1.10931 1.08062,1.88679 1.28658,3.00585 7.23573,10.86815 8.23285,19.78302 15.38603,28.94139 3.40417,5.71917 6.88596,10.44801 10.47141,15.44018 3.61331,4.17266 7.76121,8.42353 11.94848,12.01616 -5.86858,-16.16987 -19.86726,-35.3282 -23.99759,-52.84912 -0.81126,-1.43726 -0.77006,-3.16857 -1.61143,-4.57956 -0.14282,-1.30667 -0.55391,-2.53148 -1.08642,-3.71814 -0.16657,-1.81518 -1.14476,-3.41256 -1.25506,-5.24835 -0.35586,-1.43869 -0.98533,-2.78711 -1.02473,-4.3004 -0.48847,-1.54859 -0.91725,-3.10842 -1.00742,-4.74731 -0.42832,-1.50138 -0.88682,-2.99159 -0.91472,-4.58735 -0.29305,-2.15223 -1.90853,1.30122 -1.90856,-0.87974 -0.16639,-0.53426 -1.31364,-0.21326 -2.09235,-0.30417 z"
         style="vector-effect:none;fill:#ffffff;fill-opacity:1;stroke:none;stroke-width:1;stroke-linecap:butt;stroke-linejoin:miter;stroke-miterlimit:4;stroke-dasharray:none;stroke-dashoffset:0;stroke-opacity:1" />
      <path
         id="path4823-8"
         d="m 786.70556,169.45085 c -1.7747,7.05159 -0.80023,2.99073 -1.72066,6.64717 -1.84187,6.82737 -2.74013,13.64602 -4.59852,20.4241 -4.02754,15.00346 -8.17711,29.98809 -12.05339,45.024 0.57538,0.90831 1.87555,-0.10587 2.63749,-0.28625 7.42878,-14.129 15.78542,-31.0387 20.06988,-45.05304 1.33013,-3.3921 1.99739,-6.99769 3.22197,-10.4044 0.0837,-0.3936 1.15888,-1.28129 0.91126,-0.34139 -0.2741,8.75207 -0.20267,17.53308 -0.89262,26.25786 -0.71431,4.02294 -0.33363,8.17962 -1.24618,12.17649 -0.29954,3.17114 -0.56216,6.34948 -1.21786,9.4674 -0.0997,1.49648 -0.35465,3.06853 -0.10466,4.52777 1.2689,0.004 3.25311,0.30846 4.03678,-1.03716 4.58285,-14.75001 8.16292,-31.63333 11.10364,-45.68239 -0.002,-1.07531 0.49607,-2.41976 -0.15736,-3.35684 -16.84913,-13.4327 -18.95965,-17.95549 -19.98977,-18.36332 z"
         style="vector-effect:none;fill:#ffffff;fill-opacity:1;stroke:none;stroke-width:1;stroke-linecap:butt;stroke-linejoin:miter;stroke-miterlimit:4;stroke-dasharray:none;stroke-dashoffset:0;stroke-opacity:1" />
      <path
         id="path4827-5"
         d="m 763.41679,125.82376 c -1.65072,0.98269 -2.93606,2.55109 -4.42392,3.77725 -3.81016,3.63347 -7.38816,7.52581 -10.71961,11.59368 -0.39541,0.88789 -1.19451,1.47145 -1.7199,2.19016 -0.1088,0.62239 -0.96717,0.80664 -1.04293,1.49604 -0.69286,0.74329 -1.00223,1.71883 -1.77519,2.33127 -1.04458,1.98899 -2.61894,3.64565 -3.52997,5.71568 -1.31506,1.56857 -1.9818,3.62089 -3.16472,5.28297 -0.68748,0.63861 -0.52394,1.74573 -1.27415,2.33615 -0.1735,1.00261 -0.89823,1.70273 -1.2555,2.60909 -0.10762,1.00175 -1.08307,1.671 -1.13746,2.73024 -0.8507,1.22022 -1.0241,2.73921 -1.77652,4.00928 -0.25927,1.32369 -1.19641,2.37447 -1.32385,3.75142 -0.64426,1.08578 -0.83597,2.32583 -1.17784,3.52509 -0.79753,1.19334 -0.62668,2.74717 -1.3416,3.99063 -0.34604,1.28592 -0.42548,2.64704 -1.04825,3.83797 -0.29776,1.66135 -0.46871,3.34296 -1.02861,4.9415 -0.30185,1.89893 -0.45627,3.82533 -1.02085,5.66571 -0.29452,3.12341 -0.4618,6.23939 -0.74312,9.36046 -0.0853,6.12414 -0.30808,12.30262 0.39873,18.38268 0.0852,2.29643 0.16409,4.61289 0.86763,6.8123 0.20738,1.9476 0.44697,3.95138 1.10239,5.83062 0.0991,1.65556 0.69967,3.18914 1.12814,4.76195 -0.0862,1.69306 1.06896,3.06496 1.21157,4.72113 0.4544,1.17139 0.83992,2.34306 1.12724,3.5566 0.73585,1.16815 0.7403,2.64109 1.57105,3.75896 0.21502,1.32669 1.14129,2.35584 1.28657,3.68841 0.84979,1.13603 1.02749,2.59272 1.88836,3.74122 0.84743,0.59187 1.78435,-0.69275 2.62787,-0.89703 2.40085,-1.46332 5.15441,-2.46718 7.27326,-4.33713 0.76721,-1.0726 -0.86633,-1.82245 -0.75712,-2.90377 -0.38976,-0.91922 -0.97207,-1.71809 -1.14633,-2.72536 -0.61287,-1.02472 -0.72929,-2.22413 -1.15964,-3.29298 -0.77655,-1.05707 -0.63628,-2.5491 -1.42016,-3.62539 -0.22321,-1.20591 -0.4715,-2.39786 -1.01008,-3.49801 -0.20685,-1.43953 -0.4934,-2.85654 -1.03272,-4.2041 -0.20881,-1.49945 -0.43472,-2.99445 -0.95461,-4.41357 -0.26969,-2.49207 -0.60583,-4.97426 -1.04255,-7.43931 -0.45854,-7.63611 -0.46516,-15.38013 0.0866,-22.99104 0.55505,-2.0364 0.66583,-4.18581 0.94103,-6.24784 0.54416,-1.64197 0.72485,-3.43179 1.10266,-5.14046 0.83347,-1.58746 0.58227,-3.51314 1.48051,-5.07128 0.2124,-1.10732 0.39415,-2.21949 0.98301,-3.19445 0.21354,-1.21161 0.65017,-2.32362 1.16275,-3.42435 0.15205,-1.27607 1.07953,-2.25021 1.2422,-3.53485 0.61372,-0.84837 0.78138,-1.94511 1.24929,-2.81856 0.70849,-0.73101 0.5928,-1.93066 1.37932,-2.63438 0.21287,-0.75036 0.46023,-1.42687 0.97591,-2.03304 0.21039,-0.92695 0.76244,-1.64511 1.25329,-2.42092 0.0872,-0.83944 1.00101,-1.2928 1.06911,-2.1613 1.70943,-2.40564 3.00214,-5.10756 4.83296,-7.44249 1.16858,-1.84032 2.60393,-3.57449 3.95956,-5.30649 1.20147,-1.4382 2.25097,-2.9873 3.59245,-4.32455 1.49328,-2.00618 3.72157,-3.62301 4.54947,-6.04657 0.22542,-1.29098 -1.01418,-2.2797 -0.80461,-3.58633 -0.31381,-2.8178 -0.0987,-5.79765 -1.05801,-8.49119 -0.10504,-0.13719 -0.27909,-0.22204 -0.45312,-0.19172 z"
         style="vector-effect:none;fill:#ffffff;fill-opacity:1;stroke:none;stroke-width:1;stroke-linecap:butt;stroke-linejoin:miter;stroke-miterlimit:4;stroke-dasharray:none;stroke-dashoffset:0;stroke-opacity:1" />
      <path
         id="path4829-0"
         d="m 758.92927,129.30068 c -7.30849,7.02255 -14.0484,14.72297 -19.17443,23.5047 -7.76686,12.70884 -12.90009,27.00903 -15.24315,41.70633 -1.26303,8.74326 -0.9202,17.61999 -0.69722,26.42219 0.13739,7.52229 1.88019,14.89091 3.67732,22.15194 1.90092,5.86839 3.77319,11.82531 6.77813,17.23756 3.04794,-1.89158 4.46628,-6.61081 10.71816,-5.53327 0.0535,-1.32981 -1.14192,-2.45348 -1.44469,-3.74401 -3.04665,-7.43937 -5.25313,-15.22009 -6.5503,-23.12178 -1.31687,-7.67045 -1.00377,-15.4781 -0.90643,-23.23568 0.3369,-7.80572 1.94923,-15.52896 4.24687,-22.98718 2.65451,-8.65687 6.68853,-16.90035 11.49144,-24.57559 3.82618,-6.00512 8.46772,-11.39605 13.00887,-16.85295 1.06021,-1.19907 -0.85437,0.97657 1.21699,-1.49792 -0.71424,-3.35413 -1.51803,-10.24518 -1.87436,-13.96159 -5.2472,4.48725 -3.93189,3.35461 -5.2472,4.48725 z"
         style="vector-effect:none;fill:#ffffff;fill-opacity:1;stroke:none;stroke-width:1;stroke-linecap:butt;stroke-linejoin:miter;stroke-miterlimit:4;stroke-dasharray:none;stroke-dashoffset:0;stroke-opacity:1" />
      <path
         id="path4831-6"
         d="m 773.06718,99.496327 c -2.09314,0.36793 -3.6571,2.070973 -5.52524,2.984813 -7.88413,4.92143 -15.05507,10.92929 -21.7034,17.40615 -9.70991,9.79051 -18.18817,20.88917 -24.3469,33.25579 -3.80852,7.35216 -6.65785,15.1484 -9.14314,23.0309 -0.40821,1.7013 -0.82272,3.39443 -1.29766,5.08592 -1.88264,8.44012 -3.36769,17.02662 -3.28988,25.70256 -0.0173,6.72277 -0.19181,13.48351 0.57162,20.17284 0.64458,4.25328 1.20212,8.53384 2.1786,12.74055 1.81185,10.91265 8.67993,25.38121 10.07544,28.09637 3.03439,-1.77174 6.50947,-3.2383 10.56207,-5.58383 -3.98319,-10.94911 -8.71245,-25.75258 -10.1763,-37.06601 -0.30955,-5.1378 -1.19054,-10.20799 -0.83187,-15.36409 0.39918,-12.5729 2.49065,-25.16143 6.75401,-37.01748 1.33252,-3.77542 2.92911,-7.41687 4.58408,-11.04672 5.59302,-11.69538 13.05356,-22.52842 22.20503,-31.71822 3.22722,-3.54457 7.05578,-6.46272 10.34382,-9.95195 2.77577,-3.13844 3.80584,-7.39013 6.55651,-10.55969 1.71984,-2.36904 4.06914,-4.1358 6.25416,-6.02992 1.16006,-1.18444 -0.45103,-2.46118 -1.39752,-3.07819 -0.69707,-0.50714 -1.46416,-1.090693 -2.37343,-1.059793 z"
         style="vector-effect:none;fill:#ffffff;fill-opacity:1;stroke:none;stroke-width:1;stroke-linecap:butt;stroke-linejoin:miter;stroke-miterlimit:4;stroke-dasharray:none;stroke-dashoffset:0;stroke-opacity:1" />
      <path
         id="path4833-9"
         d="m 969.56894,218.65476 c -5.88911,0.88149 -9.72353,4.62613 -11.95192,8.14459 -4.68937,13.00629 -5.11288,19.90492 -12.56109,29.57098 -0.79635,1.33955 -2.13729,2.53764 -2.42285,4.09731 9.25298,7.89761 16.13037,13.08739 11.97855,24.404 -0.50641,0.24148 -0.36599,-0.97455 -0.5629,-1.30958 -1.49113,-8.81048 -1.44596,-11.11289 -7.75145,-16.36669 -1.69848,-1.29333 -3.46867,-2.48499 -5.46825,-3.20975 -1.52951,-0.28129 -2.90036,-1.12109 -4.50868,-1.04089 -3.70405,-0.11698 -7.31363,-0.64497 -10.98031,-1.13017 -11.45906,-1.02207 -21.34947,1.03457 -31.84014,0.85184 -6.73069,0.10626 -13.47904,0.33037 -20.20227,-0.033 -5.48646,-0.72367 -9.66905,-1.7429 -15.97387,-5.75727 -6.20323,-3.69259 -15.31354,-9.33225 -21.43742,-12.34885 -1.82942,-0.88548 -3.73359,-1.57439 -5.6633,-2.17283 -1.75589,-0.80403 -3.79633,-0.60627 -5.58476,-1.34072 -2.23791,-0.3839 -4.56222,-0.27369 -6.71244,-1.07887 -1.37712,-0.0704 -2.63548,-0.56671 -3.92939,-0.94574 -6.05752,-0.60053 -12.20718,0.0527 -18.24498,-0.43447 -1.80004,-0.81438 -3.84329,-0.23998 -5.66641,0.13891 -1.9204,0.0547 -3.87265,-0.006 -5.70103,0.66347 -2.28126,0.39643 -4.65959,0.30619 -6.83982,1.16497 -1.5043,0.17693 -2.9963,0.42984 -4.3896,1.02784 -2.45366,0.37795 -5.24064,0.32031 -7.16334,2.15109 -5.14079,2.69121 -10.14808,5.6762 -15.14949,8.62166 -1.33089,1.04368 -2.9445,1.67811 -4.36209,2.55938 -5.6838,2.62635 -10.87223,6.48226 -16.45075,9.34011 -12.24513,6.55361 -21.05515,10.64086 -33.81174,16.12337 -5.7907,3.48197 -15.33652,5.81284 -19.88246,8.41074 -6.63467,2.8186 -11.82238,4.24709 -8.19961,10.40085 4.70067,10.41283 12.17403,20.10468 17.76923,27.64018 2.00956,3.09393 4.57205,5.66952 6.83449,8.55776 1.00485,1.34008 1.89156,2.19248 2.89755,3.20244 2.53791,2.68631 4.95387,5.53808 7.78023,7.92269 1.07153,0.58173 2.03103,-0.85771 2.99119,-1.16852 16.15363,-14.8462 34.79408,-19.47912 52.32469,-27.55853 8.05684,-3.47927 17.39213,-2.55254 25.16911,-1.91632 22.98108,4.04167 42.76733,8.07642 64.94673,12.30519 35.66463,4.13795 65.75446,-8.15003 95.22575,-20.09163 5.20266,-2.59654 12.41955,-4.66337 16.1346,-8.87764 1.2481,-1.30085 1.95168,-2.94708 3.22297,-4.2286 1.79458,-3.24379 4.61041,-5.85538 7.20236,-8.45644 15.5415,-14.37844 19.0429,-28.52029 30.17957,-45.11974 0.2571,-1.16035 1.2708,-2.01951 1.3629,-3.24505 5.5345,-8.04234 -2.0637,-16.12675 -12.25227,-12.93494 -7.9174,2.81906 -10.2362,11.24979 -14.8699,14.1434 -0.7679,-1.8761 0.8781,-3.46197 1.0465,-5.2755 2.1765,-6.36423 2.982,-16.01506 -6.53189,-15.40105 z m -28.37821,52.69258 c 4.76947,2.93627 10.77146,9.3621 8.1073,14.53971 -1.12155,0.54576 -1.68543,-0.694 -1.70195,-1.603 0.059,-3.15817 -10.03802,-13.25045 -6.40535,-12.93671 z"
         style="vector-effect:none;fill:#ffffff;fill-opacity:1;stroke:none;stroke-width:1;stroke-linecap:butt;stroke-linejoin:miter;stroke-miterlimit:4;stroke-dasharray:none;stroke-dashoffset:0;stroke-opacity:1" />
      <path
         id="path4839-5"
         d="m 835.08041,94.639407 c -2.7464,0.1113 -5.55317,-0.13918 -8.2582,0.39897 -0.73911,0.95301 0.88536,0.86731 1.43924,0.81349 5.81032,-0.18769 11.6241,-0.24901 17.43238,-0.0271 0.93643,-0.19487 0.12957,-1.1517 -0.52678,-0.97813 -3.35262,-0.25333 -6.72663,-0.19302 -10.08664,-0.20725 z"
         style="vector-effect:none;fill:#ffffff;fill-opacity:1;stroke:none;stroke-width:1;stroke-linecap:butt;stroke-linejoin:miter;stroke-miterlimit:4;stroke-dasharray:none;stroke-dashoffset:0;stroke-opacity:1" />
      <path
         id="path4841-2"
         d="m 834.29755,82.788677 c -5.77871,-0.0416 -11.56132,0.26612 -17.26533,1.22274 -2.90375,0.23543 -5.71641,1.03288 -8.57259,1.55943 -1.09036,0.53059 -2.74776,0.19946 -3.24283,1.58657 -0.89627,2.52445 -1.00535,5.32795 -2.48172,7.65019 -0.53115,1.17471 -1.27273,2.19781 -2.08763,3.15052 -0.62787,0.75472 -0.73153,2.139683 0.46333,2.376543 2.27328,0.009 4.46425,-1.016463 6.68592,-1.471643 3.56789,-0.96379 7.19272,-1.66743 10.85209,-2.13955 3.14625,-0.5887 6.37281,-1.03331 9.55757,-0.68281 6.36579,0.0922 12.75883,0.0758 19.1065,-0.14695 4.17531,0.1556 8.26911,1.141 12.44316,1.44309 1.07091,-0.84238 1.34188,-2.52564 2.1144,-3.70001 1.06068,-2.37495 2.95146,-4.2032 4.35085,-6.34491 0.46987,-1.18799 -1.31574,-1.38935 -2.061,-1.67178 -8.93618,-2.15529 -18.15297,-2.96842 -27.33441,-2.83334 -0.84277,-0.002 -1.68554,-1e-4 -2.52831,0.002 z m -7.82993,13.0978 c -0.0125,-0.006 -0.0372,-0.029 0,0 z"
         style="vector-effect:none;fill:#ffffff;fill-opacity:1;stroke:none;stroke-width:1;stroke-linecap:butt;stroke-linejoin:miter;stroke-miterlimit:4;stroke-dasharray:none;stroke-dashoffset:0;stroke-opacity:1" />
      <path
         id="path4843-3"
         d="m 834.27891,82.549917 c -6.59943,-0.0791 -13.20499,0.30687 -19.70439,1.49766 -2.91876,0.62523 -5.99026,0.90177 -8.73863,2.10997 -1.75212,1.2806 -1.40796,3.81586 -2.23541,5.60383 -0.71222,2.38595 -2.08324,4.48054 -3.43721,6.53226 -0.65378,1.00525 0.0236,2.681743 1.35846,2.369003 5.52765,-1.061223 10.89543,-2.844303 16.49676,-3.530403 6.78717,-1.22579 13.73366,-0.59483 20.5941,-0.76356 5.8876,8.7e-4 11.81034,-0.15563 17.63077,0.89934 1.36752,-0.008 3.28876,0.83791 4.31771,-0.4398 1.5082,-2.91283 3.14909,-5.71387 5.16403,-8.30878 0.52629,-0.69048 1.47528,-1.97892 0.28581,-2.55627 -3.31593,-1.313 -6.93439,-1.6893 -10.4307,-2.30816 -7.05002,-1.16388 -14.17823,-1.12896 -21.3013,-1.10509 z"
         style="vector-effect:none;fill:#ffffff;fill-opacity:1;stroke:none;stroke-width:1;stroke-linecap:butt;stroke-linejoin:miter;stroke-miterlimit:4;stroke-dasharray:none;stroke-dashoffset:0;stroke-opacity:1" />
      <path
         id="path4845-7"
         d="m 835.28899,98.365087 c -9.6105,0.10608 -19.28734,1.26204 -28.49849,4.035463 -1.13753,0.73397 0.42659,1.92207 0.89825,2.56826 2.01284,2.2943 3.81342,4.75649 5.89452,6.99115 1.13112,1.5425 3.11373,0.85623 4.659,0.58759 5.57775,-1.13625 11.24636,-1.47885 16.926,-1.33238 5.90476,0.10369 11.85021,-0.15198 17.66228,0.96624 2.15762,0.35812 4.34759,-0.0327 6.26781,-1.06639 1.10779,-0.27682 2.85355,-1.23647 2.06272,-2.61047 -0.97387,-2.09148 -1.34263,-4.35346 -1.74767,-6.6086 -0.63696,-1.915373 -3.09433,-1.60774 -4.65899,-2.072093 -6.42729,-1.0523 -12.95692,-1.45853 -19.46543,-1.45877 z"
         style="vector-effect:none;fill:#ffffff;fill-opacity:1;stroke:none;stroke-width:1;stroke-linecap:butt;stroke-linejoin:miter;stroke-miterlimit:4;stroke-dasharray:none;stroke-dashoffset:0;stroke-opacity:1" />
      <path
         id="path4847-0"
         d="m 882.19001,86.511697 c -1.54181,-0.12828 -3.00868,0.24888 -4.37008,0.92442 -1.20075,0.15611 -2.06361,1.0186 -3.19047,1.37001 -0.568,0.64585 -1.46059,0.71244 -1.9607,1.44367 -1.87356,1.46492 -3.7306,3.14983 -4.82275,5.26389 -0.73244,0.68919 -0.74921,1.76847 -1.4277,2.50347 -0.47405,2.221833 -0.24674,4.564323 -0.15932,6.825173 0.17826,0.80634 0.86314,1.32788 1.30477,2.00197 2.54256,2.80152 6.86579,3.25939 10.30765,2.06233 6.0611,-1.97191 11.09976,-6.75449 13.62948,-12.571473 -0.19714,-1.92916 0.35603,-4.05204 -0.44247,-5.87189 -1.10176,-1.43858 -2.37644,-2.79935 -4.08338,-3.47449 -1.31787,-0.84764 -3.30092,-0.30587 -4.78503,-0.47708 z"
         style="vector-effect:none;fill:#ffffff;fill-opacity:1;stroke:none;stroke-width:1;stroke-linecap:butt;stroke-linejoin:miter;stroke-miterlimit:4;stroke-dasharray:none;stroke-dashoffset:0;stroke-opacity:1" />
      <path
         id="path4849-7"
         d="m 831.56908,66.774666 c -4.74092,0.016 -9.50751,0.0708 -14.17856,0.9564 -4.68033,0.44032 -9.24592,1.57612 -13.86637,2.43245 -0.95202,0.3532 -2.51343,0.42181 -2.85229,1.52888 0.84457,2.43441 2.58618,4.47227 3.2486,7.008901 0.57192,1.22906 0.37716,2.95114 1.45521,3.88279 1.80153,0.50746 3.59012,-0.63872 5.38157,-0.77378 10.37667,-1.89524 20.9856,-3.07496 31.53938,-2.4754 5.2802,0.40465 10.56546,0.7908 15.78664,1.69622 4.26016,0.61357 8.40476,1.99516 12.69315,2.37621 2.35331,-0.28841 4.35231,-1.81574 6.6583,-2.34548 3.60821,-1.20921 7.55128,-1.32073 11.13045,0.0395 5.19473,1.58557 8.73368,6.64615 9.46533,11.91641 0.79155,2.43432 3.53251,3.36038 5.48268,4.66077 9.28209,5.469623 17.93063,12.143713 25.51053,19.853233 7.4944,7.24367 14.07614,15.39235 19.56692,24.25841 5.01159,8.01975 9.10647,16.61337 12.28795,25.51374 2.56959,7.32908 4.59979,14.83153 5.8088,22.50841 0.89148,4.04174 0.64964,8.45552 2.50568,12.25549 1.24939,1.5305 3.03534,2.96203 5.14048,2.6974 3.3099,0.10148 6.424,-2.88014 6.0783,-6.26106 0.1247,-5.28218 -0.965,-10.48425 -1.9324,-15.64727 -1.2708,-6.0942 -2.8374,-12.14681 -4.88124,-18.02462 -1.14868,-3.48801 -2.55815,-6.97019 -3.94093,-10.40129 -3.16851,-7.57141 -7.18847,-14.77192 -11.57703,-21.70032 -5.4525,-8.36631 -11.79495,-16.13382 -18.75789,-23.2826 C 927.29167,97.450347 913.33473,87.264607 897.855,80.170407 c -5.89592,-2.799571 -11.93398,-5.322311 -18.21009,-7.138181 -8.58395,-2.73461 -17.44712,-4.57321 -26.38698,-5.66198 -6.04221,-0.76045 -12.16327,-0.43904 -18.23966,-0.59602 -1.14973,-0.004 -2.29946,-0.004 -3.44919,4.4e-4 z"
         style="vector-effect:none;fill:#ffffff;fill-opacity:1;stroke:none;stroke-width:1;stroke-linecap:butt;stroke-linejoin:miter;stroke-miterlimit:4;stroke-dasharray:none;stroke-dashoffset:0;stroke-opacity:1" />
      <path
         id="path4851-3"
         d="m 898.1823,98.963997 c -3.3714,5.834463 -1.13312,1.703543 -6.19763,9.790703 0.22947,1.07077 1.91768,1.09726 2.60117,1.77247 1.08283,0.72112 2.41233,1.11263 3.23473,2.12201 1.29328,0.30328 2.25541,1.37262 3.3955,2.02371 0.89592,0.75978 2.017,1.21099 2.77063,2.08586 0.90761,0.12978 1.411,1.086 2.25139,1.35535 0.32767,0.75252 1.24301,0.7111 1.55063,1.4601 1.86091,0.88566 3.13971,2.67039 4.83873,3.80468 10.77525,9.06354 14.45404,15.31232 21.6671,24.81408 23.11146,34.44396 12.37098,59.84559 25.65747,57.53597 1.78348,-0.25163 3.98235,-2.41951 4.15777,-4.10491 -1.54784,-41.11565 -27.20853,-79.71145 -65.92749,-102.660023 z"
         style="vector-effect:none;fill:#ffffff;fill-opacity:1;stroke:none;stroke-width:1;stroke-linecap:butt;stroke-linejoin:miter;stroke-miterlimit:4;stroke-dasharray:none;stroke-dashoffset:0;stroke-opacity:1" />
      <path
         id="path4853-7"
         d="m 889.68132,112.47964 c -0.98843,0.50487 0.41281,1.32789 0.79795,1.76588 2.30288,2.1778 4.71925,4.29642 6.70179,6.76437 0.33296,0.79732 1.16093,1.27257 1.42282,2.11824 0.74034,0.58875 0.64548,1.63667 1.40817,2.22521 0.27636,1.00856 0.81454,1.8979 1.24973,2.82255 0.19962,1.47494 1.1969,2.75625 1.12325,4.30662 0.19192,1.65612 0.88288,3.21246 2.14446,4.33477 3.43991,3.66368 7.14659,7.03233 10.20552,11.03235 0.78286,0.78562 1.4412,1.63108 1.9918,2.56498 0.94924,0.92756 1.44655,2.22501 2.44133,3.15807 0.33362,0.67955 0.66116,1.33547 1.18672,1.89856 0.21027,0.77638 1.15404,1.07888 1.22444,1.97047 0.65299,0.77658 0.96109,1.72101 1.69841,2.42935 0.32861,1.05537 1.12797,1.90188 1.45078,2.95747 0.78119,0.71915 0.96367,1.81457 1.62962,2.64415 0.0978,0.81155 0.60118,1.46936 1.04959,2.11824 0.43949,1.18297 1.03691,2.30968 1.39352,3.51311 0.80113,0.76769 0.64343,1.97363 1.36867,2.80791 0.26023,1.04356 0.61055,2.03325 1.16187,2.94193 0.71405,2.58676 1.878,5.06266 2.49989,7.71191 0.83927,3.02617 1.5957,6.0781 1.88217,9.19414 1.11772,2.72618 0.49169,5.80569 1.25195,8.68024 0.47407,1.08301 0.54039,2.3554 1.5564,3.15141 1.75109,2.05152 5.1623,2.64777 7.35906,1.00698 1.08023,-0.52461 1.92247,-1.61923 2.49193,-2.66102 0.54509,-2.65506 0.37975,-5.44425 -0.37324,-8.03762 -0.25426,-2.24598 -0.54019,-4.54291 -1.16097,-6.68182 -0.0975,-1.64563 -0.54636,-3.28207 -1.08065,-4.85515 0.0345,-1.26864 -0.48823,-2.39853 -0.91289,-3.55571 -0.0909,-1.23422 -0.57116,-2.34105 -1.04337,-3.44876 -0.14321,-1.63846 -1.21178,-2.96626 -1.38066,-4.60041 -0.53094,-0.69363 -0.76843,-1.49062 -0.97147,-2.35568 -0.58529,-0.94941 -0.7819,-2.05461 -1.23465,-3.04667 -0.66664,-0.82791 -0.76095,-2.06699 -1.47474,-2.92418 -0.15481,-1.13666 -0.99205,-1.98853 -1.26837,-3.08262 -0.77649,-0.92172 -0.9422,-2.17245 -1.75789,-3.06177 -0.11113,-1.10421 -1.17457,-1.80934 -1.31985,-2.89844 -0.79948,-0.56622 -1.01336,-1.68157 -1.69354,-2.41027 -0.64498,-1.11954 -1.1772,-2.32754 -2.00552,-3.31783 -0.13691,-0.72534 -1.0238,-0.96013 -1.13213,-1.75256 -0.41051,-0.61767 -0.93453,-1.08063 -1.20446,-1.7641 -1.01641,-0.6672 -1.15652,-2.04819 -2.13255,-2.81363 -1.3241,-1.77636 -2.86281,-3.44247 -4.14364,-5.20802 -0.63299,-0.3408 -0.59801,-1.25611 -1.42194,-1.37932 -3.08659,-3.58683 -6.40715,-7.0209 -10.04492,-10.04714 -0.26499,-0.3141 -0.28543,-0.91574 -0.86762,-0.93154 -1.5252,-0.95953 -2.78192,-2.3927 -4.28576,-3.30052 -0.82718,-1.09935 -2.3597,-1.42704 -3.14076,-2.55495 -0.80895,-0.21502 -1.06836,-1.10352 -1.89369,-1.2484 -0.75166,-0.6637 -1.71892,-0.94358 -2.32683,-1.73969 -1.54761,-0.46255 -2.6546,-1.81749 -4.21075,-2.33704 -1.29579,-0.84628 -2.71851,-1.67923 -4.20898,-2.10405 z m 30.99929,24.3299 c 0.0169,0.0582 -0.0105,-0.0258 0,0 z"
         style="vector-effect:none;fill:#ffffff;fill-opacity:1;stroke:none;stroke-width:1;stroke-linecap:butt;stroke-linejoin:miter;stroke-miterlimit:4;stroke-dasharray:none;stroke-dashoffset:0;stroke-opacity:1" />
      <path
         id="path4978-4"
         d="m 767.9663,65.646974 c -16.71442,8.110352 -32.308,18.737073 -45.24565,32.126973 -13.60578,13.388093 -24.60227,29.367513 -32.58322,46.689333 -7.6936,16.92669 -12.61688,35.16251 -14.06795,53.71287 -0.31938,8.87172 -0.24966,17.75883 -0.0773,26.63319 1.01558,12.48246 3.47056,24.85928 7.25664,36.79797 0.41837,1.38796 0.97311,2.73599 1.78584,3.92273 0.42795,1.64298 1.08955,3.19645 1.68891,4.77662 0.50113,1.20833 0.94625,2.42538 1.45008,3.6338 0.7062,2.0129 1.8139,3.82002 2.48472,5.84266 0.31621,0.79101 0.97696,2.05414 2.00252,1.36062 3.20994,-1.35074 6.53163,-2.55215 9.55719,-4.27466 0.86458,-0.97787 -0.68286,-1.80126 -0.71851,-2.80392 -0.88214,-1.95648 -1.84258,-3.88982 -2.57225,-5.89497 -0.37126,-1.03321 -0.78597,-2.03244 -1.24353,-3.02892 0.0916,-2.07861 -1.22563,-3.90047 -1.65615,-5.89737 -3.0968,-9.40416 -5.33551,-19.07399 -6.53735,-28.92726 -1.55735,-14.46279 -1.56079,-29.14303 0.97469,-43.47538 4.70339,-28.1892 17.91165,-54.89416 37.35918,-75.85167 10.46931,-11.407013 22.8194,-21.043933 36.25128,-28.776153 1.97842,-1.22856 4.23699,-2.43396 5.03277,-4.792501 1.08323,-3.18442 3.14129,-5.86609 5.67484,-8.02697 1.23876,-1.20897 2.74932,-2.12536 4.18813,-3.01383 0.072,-1.159522 -1.66953,-0.572682 -2.37699,-0.753572 -2.87397,0.006 -5.76264,-0.0738 -8.62787,0.0204 z"
         style="vector-effect:none;fill:#ffffff;fill-opacity:1;stroke:none;stroke-width:1;stroke-linecap:butt;stroke-linejoin:miter;stroke-miterlimit:4;stroke-dasharray:none;stroke-dashoffset:0;stroke-opacity:1" />
      <path
         id="path4986-9"
         d="m 833.72118,50.851197 c -5.70411,0.07545 -11.44495,-0.177762 -17.08994,0.818144 -14.90888,1.809541 -29.57328,5.713354 -43.36543,11.667413 -3.02482,1.45503 -6.32299,2.19922 -9.22524,3.914312 -12.49375,6.48471 -24.32323,14.318341 -34.7542,23.798101 -19.34346,17.340733 -34.63349,39.259953 -43.6993,63.638213 -5.25798,14.02622 -8.72909,28.77633 -9.8179,43.72858 -0.26193,9.01849 -0.27876,18.05252 0.0227,27.0703 0.68564,10.16008 2.77177,20.18563 5.34079,30.0228 0.97935,3.82741 2.27424,7.57344 3.86869,11.17841 1.73035,4.89033 3.73171,9.70888 5.97263,14.38748 0.94645,1.11276 1.96122,-0.60195 3.03167,-0.88493 2.72781,-1.21754 5.67624,-2.14875 8.10364,-3.91477 0.92017,0.32227 -0.29944,-1.99919 -0.66483,-3.20198 -1.65148,-3.61141 -3.20405,-7.2709 -4.17298,-11.13356 -5.12421,-14.92587 -8.19308,-30.60026 -8.47175,-46.37453 -0.92801,-29.82937 7.6196,-59.81085 24.03174,-84.7336 12.60797,-19.44746 29.9484,-35.709243 49.90732,-47.443773 2.86075,-1.74074 6.21939,-3.58442 7.15491,-7.074141 1.8564,-4.08299 5.40417,-7.228 9.1449,-9.60912 2.8375,-1.725412 6.34499,-1.776782 9.54787,-1.458322 3.07414,0.40822 5.77387,2.093402 8.59326,3.198462 10.17724,-2.424402 20.50197,-4.396312 30.9605,-4.809532 6.10674,-0.38764 12.23128,-0.58899 18.32808,0.0521 17.27776,1.04058 34.32688,5.363962 50.11241,12.446252 12.2115,5.613691 23.88844,12.537461 34.13538,21.260901 11.01203,9.401983 21.02366,20.080503 28.96309,32.229823 13.07768,19.5352 21.21814,42.30347 23.90014,65.64667 0.3981,2.69737 0.867,6.14101 3.7936,7.26203 3.0612,1.51868 7.3102,0.20693 8.6363,-3.01605 0.7261,-4.47374 -0.09,-9.04656 -0.7096,-13.49101 -3.0885,-18.84082 -9.432,-37.15299 -18.8851,-53.75239 -6.64521,-11.65976 -14.51933,-22.70147 -24.07165,-32.16758 -5.97762,-6.289153 -12.35559,-12.208233 -19.35706,-17.348573 -13.02878,-9.920961 -27.70928,-17.596723 -43.07656,-23.196303 -13.00357,-4.527521 -26.57335,-7.635622 -40.31965,-8.591757 -5.28832,-0.12493 -10.57893,-0.122505 -15.86844,-0.11805 z"
         style="vector-effect:none;fill:#ffffff;fill-opacity:1;stroke:none;stroke-width:1;stroke-linecap:butt;stroke-linejoin:miter;stroke-miterlimit:4;stroke-dasharray:none;stroke-dashoffset:0;stroke-opacity:1" />
      <path
         id="path4990-0"
         d="m 887.2055,111.14472 c 3.85108,4.49218 10.20572,9.35074 12.82975,15.33409 1.11193,2.35024 1.85331,4.84205 2.34858,7.38169 0.70211,2.86552 3.4391,4.53757 5.2218,6.69415 5.05535,5.17202 9.7907,10.72553 13.58579,16.88153 25.64753,31.78191 16.93207,27.48233 19.30845,49.92881 2.50816,-3.70776 -0.43561,-3.392 6.9268,-1.51513 2.08003,-1.91599 1.49043,-4.98284 1.3669,-7.49397 -1.27683,-8.4964 -2.82719,-17.04802 -5.93002,-25.11248 -4.4041,-12.09647 -10.74202,-23.53367 -19.00623,-33.42458 -9.30141,-11.00415 -20.2764,-20.91314 -33.25366,-27.3667 -0.30744,-0.12266 -3.06059,-1.31941 -3.39816,-1.30741 z"
         style="vector-effect:none;fill:#ffffff;fill-opacity:1;stroke:none;stroke-width:1;stroke-linecap:butt;stroke-linejoin:miter;stroke-miterlimit:4;stroke-dasharray:none;stroke-dashoffset:0;stroke-opacity:1" />
      <path
         id="path1104-9"
         d="m 791.52017,104.03503 c -2.6793,0.0373 -5.31629,0.768 -7.76801,1.8121 -1.99694,1.15299 -3.68203,2.7975 -5.15817,4.55505 -3.32844,4.13037 -4.59811,9.53905 -4.71853,14.75053 -0.13622,7.85579 1.823,15.5734 4.24581,22.98901 1.33959,3.98064 2.81385,7.92211 4.49043,11.77241 2.84862,6.5001 1.82805,3.19155 1.16168,-0.26896 -1.49377,-6.27315 -2.72088,-12.70076 -2.32394,-19.17636 0.22176,-2.4292 0.54251,-5.05524 2.11784,-7.02145 0.70824,-0.91869 2.04894,-1.35842 3.09034,-0.73332 1.88881,1.0857 2.77086,3.21979 3.39435,5.20488 0.84396,2.7353 1.02839,5.57825 0.96615,8.42366 0.02,6.25795 -1.52049,12.36284 -3.47887,18.3039 -0.29785,1.16634 -0.72614,2.06476 -0.9005,3.25531 1.00146,0.82805 1.61264,0.79517 2.07208,1.15737 6.44355,3.29748 11.37924,6.00302 17.93724,9.07033 0.40947,0.28453 2.01153,1.18982 2.04603,0.5377 0.65791,-7.44211 1.04762,-14.9149 1.02615,-22.38795 -0.0118,-10.32453 -1.1735,-20.64515 -3.50637,-30.70401 3.69752,2.91942 8.27823,4.36558 12.73538,5.67404 7.67476,2.08265 15.71288,2.90998 23.64624,2.29209 5.2257,-0.42539 10.40366,-1.6431 15.18842,-3.80752 0.97179,11.53538 1.78662,23.09525 2.71999,34.6392 -3.71541,2.15583 -7.42895,4.86338 -9.29526,8.86305 -0.93211,2.00335 -1.48538,4.45354 -1.94371,6.60248 -0.0793,0.66997 9.73147,-2.59343 10.18948,-2.81744 8.27593,-2.25881 9.22626,-3.34937 15.90667,-5.11982 0.50875,-0.0819 0.72944,-0.085 0.392,-0.59829 -1.6094,-3.39959 -4.50229,-5.93148 -7.21248,-8.44179 -0.68934,-0.32292 -0.13172,-1.05673 -0.12044,-1.61051 1.08619,-5.1602 1.96722,-10.38286 4.19158,-15.20278 1.71863,-3.71585 4.50911,-7.04526 8.1687,-8.94833 0.54424,-0.28463 1.14046,-0.70751 1.77554,-0.37838 2.35315,0.6318 4.76321,1.94126 5.78172,4.27519 1.28027,2.9461 0.51965,6.29038 -0.45989,9.23699 -1.84145,5.28412 -4.92189,10.08003 -7.76721,14.90923 -0.59969,1.08092 -1.33216,2.10651 -1.81113,3.24519 -1.4955,2.55279 1.369,0.0613 1.91276,-0.55322 4.6224,-4.8854 9.31586,-9.70578 13.85114,-14.67238 1.43957,-1.59932 2.08737,-3.72509 2.70327,-5.74242 0.95846,-3.31763 0.95722,-6.82979 0.57914,-10.23628 -1.19395,-8.0685 -5.98966,-15.72408 -13.20911,-19.6912 -3.97555,-2.16997 -8.52265,-3.30642 -13.05541,-3.1815 -2.62875,-0.0388 -5.25072,0.25061 -7.80957,0.85301 -1.20486,0.24276 -2.44734,0.49522 -3.43608,1.27891 -4.70237,3.22025 -8.68134,7.38599 -13.44691,10.51809 -3.36011,2.1213 -7.21603,3.52607 -11.20817,3.69215 -1.41345,0.0669 -2.84904,0.10301 -4.25247,0.0251 -5.20446,-2.10127 -10.10612,-5.06107 -14.32245,-8.79759 -4.7204,-4.06661 -8.73236,-8.86805 -13.35809,-13.03312 -3.20093,-2.86858 -7.3222,-5.03233 -11.72733,-4.81234 z"
         style="fill:#ffffff;fill-opacity:1;stroke:none;stroke-width:1" />
      <path
         id="path1106-8"
         d="m 882.3193,85.553477 c -4.15443,0.0797 -7.99412,2.23739 -11.00296,4.97658 -2.36357,2.16053 -4.2992,4.84383 -5.40845,7.85734 -0.4731,1.60898 -0.64022,3.290703 -0.54007,4.970563 -0.0377,1.73673 1.27283,3.08774 2.41016,4.23879 2.05061,1.9939 5.09852,2.62347 7.86995,2.26519 2.44922,-0.33013 4.73959,-1.40374 6.86949,-2.61453 4.0345,-2.48994 7.35785,-6.1947 9.26755,-10.542693 0.20571,-0.91883 0.13444,-1.88414 0.35124,-2.80584 0.30519,-1.73061 -0.38441,-3.48893 -1.59728,-4.72171 -1.23393,-1.5045 -2.9292,-2.56675 -4.78578,-3.12197 -1.109,-0.3461 -2.27229,-0.51495 -3.43385,-0.50172 z"
         style="fill:#ffffff;fill-opacity:1;stroke:none;stroke-width:1" />
      <path
         id="path1108-4"
         d="m 835.3549,160.42481 c -4.81791,0.10791 -9.67631,1.39017 -13.76297,3.9818 -2.54606,1.63361 -4.83276,4.25315 -4.91711,7.41682 -0.12357,1.25376 0.9512,2.17453 1.83175,2.88931 2.71327,1.92556 6.07711,2.6877 9.34565,2.96231 4.12752,0.19711 8.4882,-0.38217 11.98365,-2.73811 2.8511,-1.85626 4.63494,-5.12314 4.80399,-8.5046 0.37068,-4.11931 -3.70584,-5.56164 -7.0709,-5.92018 -0.73593,-0.0664 -1.4752,-0.0949 -2.21406,-0.0874 z"
         style="fill:#ffffff;fill-opacity:1;stroke:none;stroke-width:1" />
      <path
         id="path1114-8"
         d="m 875.65828,172.88021 c -6.55797,4.27458 -13.03444,8.67539 -19.67069,12.8279 -2.14974,1.2325 -4.44936,2.3149 -6.24258,4.06305 -0.58288,0.79704 -0.0371,1.82773 0.0611,2.6924 1.33822,7.15018 3.07696,14.2215 5.16028,21.19054 2.42245,9.46551 19.1506,55.65313 15.84183,41.70899 -0.4001,-2.98445 -0.75334,-5.97287 -1.25109,-8.94202 -2.29367,-16.12302 -4.38419,-32.29602 -5.3506,-48.56065 -0.0491,-0.92125 -0.0867,-1.84305 -0.12745,-2.76469 0.31849,-0.012 0.91265,-0.42662 1.01279,0.1156 4.71999,9.07418 9.26391,18.24134 13.96817,27.32212 1.34863,2.82988 2.9184,5.5449 4.64738,8.15849 3.06621,5.03831 6.33532,9.96693 9.96499,14.62373 2.73473,3.73864 6.00831,7.03185 9.26352,10.31145 1.34018,1.29885 2.65168,2.64113 4.09976,3.81868 0.41986,-0.009 0.048,-0.57747 -9.7e-4,-0.78977 -3.70486,-9.26716 -8.29247,-18.14265 -12.52364,-27.17282 -7.58293,-15.92534 -14.53774,-32.40461 -17.53018,-49.87858 -0.49496,-2.88979 -0.86553,-5.82714 -1.21381,-8.7252 l -0.0891,-0.009 z"
         style="fill:#ffffff;fill-opacity:1;stroke:none;stroke-width:1" />
      <path
         id="path1120-2"
         d="m 766.58423,84.676397 c -6.79877,3.62902 -13.15684,8.11623 -19.18436,12.92416 -18.45339,14.866663 -33.50912,33.987303 -43.1893,55.646453 -11.75949,25.74834 -15.45158,55.07593 -10.3673,82.92725 2.35801,13.07161 6.3822,25.87877 12.05114,37.88508 1.38582,1.15083 3.11204,-0.58599 4.47902,-1.00198 1.91841,-1.17638 4.45666,-1.68539 5.9099,-3.4711 -0.10024,-2.11744 -1.35223,-4.10169 -1.9545,-6.13476 -5.24836,-13.84001 -8.61809,-28.43376 -9.6408,-43.20002 -0.49514,-10.75674 -0.38366,-21.60602 1.67176,-32.18341 2.66314,-15.44865 8.46751,-30.18102 16.5722,-43.60083 11.6883,-19.29335 28.41436,-35.19603 46.86971,-48.030173 0.33946,-1.64769 -0.68345,-3.46595 -0.93822,-5.16797 -0.57289,-2.11081 -1.06144,-4.25246 -1.75135,-6.32737 -0.17761,-0.0961 -0.27122,-0.35769 -0.5279,-0.26533 z"
         style="fill:#ffffff;fill-opacity:1;stroke:none;stroke-width:1" />
      <path
         id="path1122-0"
         d="m 773.25917,99.299477 c -3.13518,0.61354 -5.59425,2.960743 -8.30058,4.521083 -14.66781,9.92522 -27.40263,22.77837 -37.07532,37.6225 -11.94531,18.67391 -19.40958,40.39205 -20.42004,62.59608 -0.27963,10.41749 -0.2272,20.91443 1.79355,31.18006 1.71883,11.01974 5.60234,21.59357 10.4404,31.60093 0.29208,0.92123 1.13365,1.84197 2.06736,0.87818 3.08662,-1.68543 6.5067,-2.92522 9.3494,-4.98294 0.29406,-2.01933 -1.07574,-3.92203 -1.55616,-5.84484 -3.68344,-11.02951 -7.14262,-22.32077 -8.45183,-33.90422 -2.985,-29.86408 6.32001,-60.7978 25.26401,-84.08419 5.0614,-6.42163 11.11823,-11.97088 17.02818,-17.59653 3.86653,-3.87752 5.11589,-9.55563 9.15808,-13.26564 1.51342,-1.82394 3.74347,-3.07413 5.02574,-5.04777 -0.15553,-1.63597 -1.89531,-2.6824 -3.19544,-3.458013 -0.3543,-0.15332 -0.74115,-0.22996 -1.12735,-0.21469 z"
         style="fill:#ffffff;fill-opacity:1;stroke:none;stroke-width:1" />
      <path
         id="path1124-9"
         d="m 763.84237,124.87847 c -3.30983,2.26146 -6.0695,5.31349 -8.97275,8.08181 -15.87974,15.93387 -26.2306,37.01134 -30.26877,59.06056 -1.68969,10.09115 -1.43333,20.39561 -1.01178,30.58175 0.62946,10.8637 3.49721,21.52288 7.48084,31.61415 1.06951,2.09577 1.64541,4.66028 3.40462,6.29181 1.63362,0.12154 3.04948,-1.29787 4.53638,-1.85451 2.08077,-1.3342 4.76425,-2.15249 6.23346,-4.21821 -0.45616,-1.98051 -1.70196,-3.78207 -2.24442,-5.76705 -3.99713,-10.78214 -6.76015,-22.14573 -6.56999,-33.69956 -0.11164,-8.36799 0.0344,-16.80126 2.06461,-24.935 3.6287,-16.6543 11.75601,-32.14419 22.85407,-45.02577 1.52638,-2.09148 3.56478,-3.88002 4.8255,-6.13221 -0.0555,-3.48969 -1.01099,-6.89422 -1.23532,-10.38942 -0.28841,-1.14902 0.0108,-2.63768 -0.78709,-3.56981 -0.10257,0.24398 -0.20635,-0.0782 -0.30936,-0.0385 z"
         style="fill:#ffffff;fill-opacity:1;stroke:none;stroke-width:1" />
      <path
         id="path1126-7"
         d="m 831.51759,50.609791 c -6.49581,-0.0721 -13.0192,0.03592 -19.40961,1.336101 -13.81902,2.138303 -27.3708,5.96326 -40.18228,11.58373 -9.8969,3.676574 -18.87494,9.388214 -27.62167,15.214105 -19.58611,13.78359 -36.16631,31.888263 -48.0967,52.661053 -11.11946,19.51886 -18.25724,41.3622 -20.50209,63.72439 -0.46885,10.98233 -0.78904,22.01288 0.006,32.98677 1.07456,11.38832 3.46206,22.66958 7.00657,33.54198 2.49008,6.58593 4.83364,13.28564 8.07036,19.54039 0.99373,1.24655 2.58521,-0.25019 3.74481,-0.47566 2.652,-1.22774 5.62607,-2.03769 7.94871,-3.83337 0.61541,-1.74933 -0.84419,-3.50666 -1.27158,-5.16446 -3.57242,-8.30903 -5.95726,-17.12267 -8.19917,-25.85973 -2.72735,-11.29809 -3.87153,-22.89242 -3.79834,-34.5025 -0.22473,-20.78989 4.46092,-41.58254 13.00594,-60.52785 7.56938,-16.5713 18.11727,-31.92165 31.32366,-44.5383 9.32284,-9.566093 20.33921,-17.244783 31.73831,-24.132113 2.70423,-1.50325 4.41627,-4.13372 5.62118,-6.901421 2.39198,-4.11378 6.23125,-7.62517 10.71975,-9.241754 4.38874,-1.07358 9.14884,-0.34731 13.17427,1.733964 1.63236,0.8664 3.46147,1.0349 5.2061,0.38244 9.88398,-2.160914 19.83445,-3.933244 29.95669,-4.219674 11.24866,-0.82415 22.55679,0.40791 33.64064,2.27585 21.02777,3.807054 40.97312,12.779405 58.50857,24.905475 9.79143,7.07177 18.52588,15.531183 26.57503,24.513663 18.99606,22.13874 30.94329,50.01917 34.45759,78.90705 0.4777,3.04466 0.892,6.98708 4.1584,8.34893 3.3846,1.54969 7.9941,-0.22942 9.2239,-3.71453 0.2804,-12.47204 -2.9402,-24.6968 -6.5302,-36.53772 -6.5215,-20.44907 -17.14793,-39.6175 -31.08016,-55.94726 -8.4969,-9.126363 -17.20895,-18.194443 -27.41613,-25.440783 -22.61289,-16.377915 -49.41951,-27.128991 -77.2025,-30.243598 -7.57572,-0.556024 -15.18701,-0.31881 -22.77644,-0.375168 z"
         style="fill:#ffffff;fill-opacity:1;stroke:none;stroke-width:1" />
      <path
         id="path1128-8"
         d="m 834.02716,82.319307 c -9.23445,-0.0549 -18.61317,0.5196 -27.4836,3.2549 -2.34485,0.68146 -2.35139,3.58607 -3.136,5.48042 -0.71423,2.86088 -2.52638,5.22579 -3.7916,7.82375 -0.45019,1.592573 1.64928,2.761243 2.96591,1.915073 7.50921,-1.637763 14.99521,-3.995333 22.75452,-3.769723 9.54554,0.0186 19.10823,-0.27145 28.64291,0.2517 2.00019,0.0287 4.1889,1.02375 6.13493,0.26312 2.26895,-2.75013 3.7626,-6.06962 5.88473,-8.94246 0.55403,-0.78843 1.71472,-2.23171 0.27607,-2.81435 -4.64225,-1.85635 -9.73143,-2.25316 -14.64291,-2.97031 -5.84579,-0.59982 -11.73746,-0.47024 -17.60496,-0.49212 z"
         style="fill:#ffffff;fill-opacity:1;stroke:none;stroke-width:1" />
      <path
         id="path1130-1"
         d="m 835.91415,98.197447 c -8.42116,-0.0773 -16.85961,0.67419 -25.0339,2.767603 -1.55752,0.54285 -3.5303,0.57695 -4.74679,1.77594 0.0851,1.4557 1.66837,2.46503 2.38181,3.68935 1.94207,2.14935 3.48877,4.80497 5.87681,6.48158 2.8606,0.75286 5.78617,-0.63233 8.66212,-0.77383 8.92372,-0.96175 17.99379,-0.64541 26.91706,0.0326 3.73505,0.49505 8.14252,0.70589 11.18389,-1.89932 0.99706,-1.76916 -0.64296,-3.69407 -0.78521,-5.50514 -0.57552,-1.26327 -0.20253,-2.98778 -1.19811,-3.99919 -3.30738,-1.539353 -7.10346,-1.588363 -10.66305,-2.150663 -4.18637,-0.37179 -8.39415,-0.425 -12.59463,-0.41891 z"
         style="fill:#ffffff;fill-opacity:1;stroke:none;stroke-width:1" />
      <path
         id="path1132-6"
         d="m 898.12766,98.864067 c -1.14031,0.64109 -1.37561,2.310053 -2.27348,3.253053 -1.30594,2.33103 -3.24426,4.4576 -4.02714,7.01366 1.1632,1.36769 3.19349,1.71035 4.58757,2.83049 12.69745,7.86904 24.24194,17.83541 32.8821,30.05791 9.50089,12.07833 16.4618,26.26273 19.64379,41.31974 1.54306,6.3634 2.08082,13.02644 4.28922,19.22442 0.90249,2.37933 3.38085,4.04612 5.95217,3.53949 2.37147,-0.0322 4.37297,-2.04321 5.20245,-4.12078 0.008,-4.99249 -0.72122,-9.99327 -1.51709,-14.92144 -5.51486,-30.99208 -24.27823,-58.6389 -48.95392,-77.74872 -4.92086,-3.7344 -9.97191,-7.37495 -15.35796,-10.397733 -0.13746,-0.0438 -0.28346,-0.069 -0.42771,-0.0501 z"
         style="fill:#ffffff;fill-opacity:1;stroke:none;stroke-width:1" />
      <path
         id="path1134-8"
         d="m 888.5826,111.44494 c -1.32754,0.65702 0.59563,1.87434 1.03323,2.56461 4.1376,4.3562 8.51609,8.73968 10.73784,14.45053 1.51313,3.08217 1.46369,6.86977 4.01461,9.40991 9.53201,11.52355 19.42577,23.09737 25.60258,36.85507 3.76294,8.45296 5.66495,17.61803 6.02822,26.82983 -0.15798,3.19807 2.47343,6.13523 5.6962,6.19879 3.84757,0.46596 8.16086,-2.51918 7.91458,-6.65788 -0.22304,-5.32278 -1.78751,-10.49182 -2.8283,-15.69419 -1.78647,-8.27217 -4.48095,-16.35731 -8.48406,-23.83226 -5.63472,-11.22649 -12.95865,-21.61697 -21.97469,-30.38768 -7.99775,-7.86955 -16.8875,-15.17889 -27.25249,-19.67343 -0.15845,-0.0413 -0.32282,-0.0795 -0.48772,-0.0633 z"
         style="fill:#ffffff;fill-opacity:1;stroke:none;stroke-width:1" />
      <path
         id="path1136-3"
         d="m 831.59245,66.672906 c -6.23581,-0.0584 -12.50812,-0.009 -18.62956,1.33588 -3.91639,0.85001 -8.04788,1.12602 -11.76379,2.68251 -1.43933,1.21254 0.25744,3.09609 0.72276,4.38665 1.32109,2.30777 1.88962,4.926321 2.86297,7.358611 1.61029,1.38684 3.86752,-0.0387 5.68064,-0.20532 8.43633,-1.5963 16.9529,-2.63815 25.56261,-2.46566 9.96578,-0.19114 19.8209,0.96522 29.5429,3.11356 2.9716,0.77016 6.26666,1.23305 9.05459,-0.4046 5.55342,-2.5386 12.78899,-2.95133 17.77616,1.14167 3.02165,2.33912 4.57495,5.99204 5.4463,9.57697 1.53996,3.22628 5.32023,4.37827 8.04367,6.34017 23.4429,14.773483 42.39313,36.830973 52.63755,62.643153 4.52801,11.09174 7.30115,22.82841 8.88484,34.70165 0.55543,2.65932 0.89602,5.9416 3.64022,7.29806 3.84092,2.57354 9.64712,-0.56751 9.73002,-5.15291 -0.01,-8.00088 -1.8725,-15.87666 -3.6969,-23.62594 -6.78119,-26.71855 -21.50202,-51.2701 -41.64653,-70.05818 -17.17881,-16.314963 -38.58299,-28.032264 -61.39221,-34.304964 -7.91791,-1.99496 -15.96509,-3.79728 -24.13567,-4.26994 -6.10513,-0.14935 -12.21417,-0.074 -18.32057,-0.0914 z"
         style="fill:#ffffff;fill-opacity:1;stroke:none;stroke-width:1" />
      <path
         id="path1148-2"
         d="m 790.53924,173.04277 c 3.87179,3.8641 9.27478,8.13358 13.3374,11.79444 1.20308,0.92501 1.77065,1.7057 3.60523,2.80908 1.15109,1.19973 2.52077,2.18256 3.64043,3.42306 3.84058,3.8687 6.73555,8.9731 7.04682,14.46756 0.47319,7.06087 -2.39789,13.80429 -5.41506,20.08003 -1.86498,3.90185 -3.85076,7.74681 -5.64841,11.68023 -0.14543,0.98553 1.13781,0.67235 1.75209,0.7937 2.62438,0.18043 5.27133,0.52868 7.89292,0.66816 0.97742,-0.57376 1.70126,-1.58397 2.57821,-2.32989 3.26523,-3.1311 6.48358,-6.3302 9.8007,-9.38539 5.80452,7.41351 11.35888,15.02921 17.10913,22.47754 1.6149,1.12802 3.4132,1.76185 5.28253,2.79743 1.88534,1.24323 3.62899,2.94676 1.95136,-0.10988 -3.96762,-9.72154 -11.2131,-21.01948 -14.40381,-30.37891 -1.63757,-4.98687 -2.49314,-10.21268 -2.19102,-15.45446 0.3656,-2.5855 1.2117,-5.22851 2.28965,-7.65955 1.60536,-3.63544 4.54844,-6.62008 8.2002,-8.25732 2.8638,-1.34597 5.20582,-3.45763 8.08945,-4.93477 5.56251,-3.64741 11.12746,-7.29366 16.66983,-10.97002 3.32134,-1.96207 2.48856,-1.9815 -0.77881,-0.83398 -7.4214,2.26578 -14.70962,4.9546 -22.20825,6.90649 -1.25606,0.192 -2.54841,0.19641 -3.8112,0.4196 -8.70714,1.10512 -17.50977,2.57588 -26.26586,1.65765 -3.67635,-0.3836 -7.30901,-1.42501 -10.60314,-3.0898 -5.44499,-2.48506 -10.79078,-5.5365 -16.18569,-8.12232 -2.76475,-1.32143 -7.3889,-4.79057 -1.7347,1.55132 z"
         style="fill:#ffffff;fill-opacity:1;stroke:none;stroke-width:1" />
    </g>
  </g>
  <text
     id="text891"
     y="147.79062"
     x="496.58319"
     style="font-size:96px;line-height:0;font-family:Garamond;-inkscape-font-specification:Garamond;letter-spacing:0px"
     xml:space="preserve"><tspan
       style="font-style:normal;font-variant:normal;font-weight:bold;font-stretch:normal;font-size:56px;line-height:0.85;font-family:Garamond;-inkscape-font-specification:'Garamond Bold';fill:#ffffff;fill-opacity:1"
       y="147.79062"
       x="496.58319"
       id="tspan889"
       sodipodi:role="line">IGLESIA</tspan><tspan
       id="tspan893"
       style="font-style:normal;font-variant:normal;font-weight:bold;font-stretch:normal;font-size:105px;line-height:0.85;font-family:Garamond;-inkscape-font-specification:'Garamond Bold';fill:#ffffff;fill-opacity:1"
       y="226.65225"
       x="496.58319"
       sodipodi:role="line">EBENEZER</tspan><tspan
       id="tspan895"
       style="font-style:normal;font-variant:normal;font-weight:bold;font-stretch:normal;font-size:72px;line-height:0.75;font-family:Garamond;-inkscape-font-specification:'Garamond Bold';fill:#ffffff;fill-opacity:1"
       y="291.2485"
       x="496.58319"
       sodipodi:role="line">ORLANDO</tspan></text>
</svg>
